<?xml version="1.0" encoding="UTF-8" standalone="no"?>
<!-- Created with Inkscape (http://www.inkscape.org/) -->

<svg
   xmlns:dc="http://purl.org/dc/elements/1.1/"
   xmlns:cc="http://creativecommons.org/ns#"
   xmlns:rdf="http://www.w3.org/1999/02/22-rdf-syntax-ns#"
   xmlns:svg="http://www.w3.org/2000/svg"
   xmlns="http://www.w3.org/2000/svg"
   xmlns:sodipodi="http://sodipodi.sourceforge.net/DTD/sodipodi-0.dtd"
   xmlns:inkscape="http://www.inkscape.org/namespaces/inkscape"
   width="210mm"
   height="297mm"
   viewBox="0 0 210 297"
   version="1.1"
   id="svg1520"
   inkscape:version="0.92.3 (2405546, 2018-03-11)"
   sodipodi:docname="ehpf.svg">
  <defs
     id="defs1514" />
  <sodipodi:namedview
     id="base"
     pagecolor="#ffffff"
     bordercolor="#666666"
     borderopacity="1.0"
     inkscape:pageopacity="0.0"
     inkscape:pageshadow="2"
     inkscape:zoom="0.64"
     inkscape:cx="358.36179"
     inkscape:cy="439.40418"
     inkscape:document-units="mm"
     inkscape:current-layer="layer1"
     showgrid="false"
     inkscape:window-width="1827"
     inkscape:window-height="1057"
     inkscape:window-x="85"
     inkscape:window-y="-8"
     inkscape:window-maximized="1" />
  <metadata
     id="metadata1517">
    <rdf:RDF>
      <cc:Work
         rdf:about="">
        <dc:format>image/svg+xml</dc:format>
        <dc:type
           rdf:resource="http://purl.org/dc/dcmitype/StillImage" />
        <dc:title></dc:title>
      </cc:Work>
    </rdf:RDF>
  </metadata>
  <g
     inkscape:label="Layer 1"
     inkscape:groupmode="layer"
     id="layer1">
    <g
       id="g2123"
       transform="translate(-10.722181,20.875521)"
       inkscape:export-filename="C:\Users\cs02gl\ehpf.png"
       inkscape:export-xdpi="300"
       inkscape:export-ydpi="300">
      <g
         transform="matrix(0.82351377,0,0,0.82351377,-1074.0822,-42.040671)"
         id="g1524">
        <path
           id="path5975"
           d="m 1436.9721,258.2274 c -0.095,-0.095 -0.1734,-0.4997 -0.1734,-0.8985 0,-0.773 2.1604,-15.884 3.2302,-22.5931 l 0.6418,-4.0255 -0.5165,-0.8357 c -0.6,-0.9707 -7.1936,-10.7252 -8.6753,-12.8339 -0.5529,-0.7869 -1.7899,-2.5427 -2.7491,-3.9019 -2.9454,-4.174 -8.6024,-12.7429 -9.2992,-14.086 -0.8368,-1.6129 -0.7025,-2.1237 1.6221,-6.1708 0.9345,-1.627 1.6992,-3.0722 1.6992,-3.2114 0,-0.1392 -0.2411,-0.5916 -0.5357,-1.0054 -1.2164,-1.7083 -2.3414,-4.782 -3.6056,-9.8517 -0.7298,-2.9266 -1.5703,-5.824 -1.8678,-6.4385 -0.4141,-0.8556 -1.2818,-1.6878 -3.704,-3.5525 -3.7964,-2.9226 -4.8926,-4.0361 -7.9249,-8.0499 -3.034,-4.016 -5.9368,-7.2028 -6.5609,-7.2028 -0.526,0 -1.7856,-1.2452 -3.1112,-3.0755 -0.663,-0.9155 -0.8835,-1.0673 -1.1858,-0.8164 -0.5924,0.4917 -1.5458,0.08 -2.2852,-0.9871 -1.1777,-1.6995 -1.1418,-2.2848 0.2706,-4.4092 1.6577,-2.4936 4.0181,-5.2964 5.4453,-6.4658 1.0503,-0.8607 1.2615,-0.9339 2.2601,-0.7842 0.6058,0.091 1.4866,0.3994 1.9572,0.6856 0.7254,0.4411 0.843,0.648 0.7719,1.3582 -0.082,0.8151 -0.023,0.8679 2.1681,1.9469 1.763,0.8683 2.3075,1.2686 2.5082,1.8442 0.2036,0.5841 0.944,1.1136 3.6009,2.5755 1.8396,1.0121 4.8079,2.558 6.5963,3.4353 3.2726,1.6053 4.374,2.3763 8.1939,5.7355 1.4604,1.2843 2.4581,1.943 3.3451,2.2089 0.7115,0.2132 3.4732,0.4983 6.3181,0.6521 2.7797,0.1504 5.8982,0.4336 6.9299,0.6294 1.0318,0.1958 1.9645,0.3019 2.0729,0.2359 0.1083,-0.066 0.388,-0.493 0.6215,-0.9489 0.2336,-0.4559 0.5547,-0.9149 0.7135,-1.02 1.3942,-0.9224 9.0413,1.7814 11.442,4.0457 1.2111,1.1422 1.2059,1.7911 -0.033,4.0743 -0.9076,1.6731 -0.9456,1.8284 -0.5459,2.2323 0.4884,0.4935 0.3094,0.7037 2.2461,-2.6388 1.5432,-2.6633 1.5272,-2.6552 3.9106,-1.9646 3.9126,1.134 8.656,4.0837 9.9603,6.194 0.6018,0.9739 0.7626,0.5361 -1.9168,5.2187 -1.5156,2.6486 -1.767,3.2498 -1.4957,3.5767 0.1794,0.2161 0.4256,0.393 0.5472,0.393 0.1217,0 1.139,-1.3754 2.2607,-3.0565 1.4094,-2.1121 2.2132,-3.0819 2.6015,-3.1387 1.7649,-0.2582 9.4835,5.7133 10.2031,7.8938 0.3893,1.1798 -0.2042,2.4819 -2.3087,5.0647 -1.5072,1.8497 -1.8157,2.5716 -1.1884,2.7805 0.1525,0.051 1.079,-0.8467 2.0589,-1.9944 0.9799,-1.1477 1.9774,-2.0868 2.2166,-2.0868 1.6875,0 7.2797,6.2002 7.2821,8.0737 5e-4,0.4486 -0.416,1.0707 -1.2998,1.9412 -0.7154,0.7046 -1.3006,1.4129 -1.3006,1.574 0,0.1611 1.0242,1.102 2.2759,2.0908 4.5255,3.5747 5.788,5.0823 5.788,6.9113 0,2.3709 -2.2696,7.2946 -5.6765,12.315 -4.0096,5.9084 -10.5548,12.1919 -14.9242,14.3275 -1.3304,0.6503 -1.5507,0.8787 -2.1623,2.2414 -0.3745,0.8346 -0.7754,2.1153 -0.891,2.846 -0.1155,0.7307 -0.1496,6.0519 -0.076,11.8247 0.1055,8.2535 0.064,10.5811 -0.1957,10.8936 -0.2903,0.3498 -2.5546,0.3975 -18.8537,0.3975 -10.1881,0 -18.6019,-0.078 -18.6973,-0.1734 z"
           style="fill:#d5d4d2;stroke-width:0.26012641"
           inkscape:connector-curvature="0" />
        <path
           id="path13848"
           d="m 1438.2233,257.6383 c -0.5365,-0.044 -0.9754,-0.1342 -0.9754,-0.1995 0,-0.453 2.7466,-19.1958 3.2614,-22.2561 0.3522,-2.0939 0.6405,-4.0457 0.6405,-4.3373 0,-0.6287 -2.4858,-4.4052 -10.6426,-16.1687 -8.146,-11.748 -10.9479,-16.1419 -10.9479,-17.1683 0,-0.9162 0.5264,-2.0327 2.4569,-5.2111 1.7522,-2.8848 1.7988,-3.0279 1.1855,-3.6411 -1.2326,-1.2326 -2.4093,-4.3047 -3.93,-10.2604 -1.1426,-4.475 -1.7134,-6.2569 -2.2478,-7.017 -0.3939,-0.5603 -1.7697,-1.8224 -3.0573,-2.8047 -3.9386,-3.0044 -5.261,-4.2969 -7.6966,-7.5222 -1.2884,-1.7063 -3.2046,-4.1058 -4.2582,-5.3322 l -1.9155,-2.2298 2.1339,-2.1218 c 1.7736,-1.7633 3.5621,-4.1073 4.9731,-6.5175 0.2321,-0.3964 0.5965,-0.2563 3.3816,1.3008 1.7168,0.9598 4.671,2.5016 6.5647,3.4261 2.4026,1.173 3.9749,2.142 5.2026,3.2063 4.1902,3.6328 5.2971,4.4552 6.4726,4.809 0.6835,0.2056 3.4557,0.4777 6.3242,0.6207 2.8091,0.1399 6.04,0.4346 7.1799,0.6548 2.3125,0.4468 2.276,0.4623 3.2959,-1.3995 0.5264,-0.9608 0.9615,-1.0032 3.3296,-0.3244 3.9675,1.1372 7.2719,2.8853 8.2362,4.3571 0.4362,0.6658 0.4309,0.7274 -0.1511,1.761 -0.598,1.0621 -1.7152,3.2818 -4.2378,8.4197 -0.8767,1.7858 -1.4517,2.6663 -1.741,2.6663 -0.2376,0 -1.9502,-0.5872 -3.8058,-1.305 -5.2276,-2.0222 -4.8345,-1.9928 -6.1283,-0.4584 -1.0331,1.2252 -1.0704,1.3234 -0.604,1.5916 0.777,0.4469 12.4074,4.766 14.7944,5.4941 2.8868,0.8805 3.5214,1.4033 3.5214,2.901 0,2.1739 -2.1118,5.048 -4.5602,6.2063 -2.553,1.2077 -6.4706,1.3211 -9.8742,0.2856 -1.0217,-0.3108 -1.3612,-0.3271 -1.5949,-0.076 -0.3452,0.3703 -4.2606,12.6947 -4.2606,13.4109 0,0.3177 3.0757,2.9946 9.0394,7.8674 4.9717,4.0623 9.6094,7.9451 10.3061,8.6284 0.6967,0.6834 1.5319,1.309 1.8558,1.3903 1.768,0.4438 7.0499,-4.0353 13.3441,-11.316 l 3.016,-3.4887 -0.897,-0.6684 c -0.4934,-0.3676 -1.3945,-1.1527 -2.0026,-1.7446 -1.6042,-1.5617 -1.5448,-2.3908 0.3374,-4.704 0.7936,-0.9753 2.5718,-3.2365 3.9517,-5.0248 5.5489,-7.1919 7.678,-9.6247 8.4228,-9.6247 1.0976,0 6.4725,6.0511 6.4725,7.2869 0,0.1779 -0.7747,1.1448 -1.7216,2.1485 -1.5567,1.6501 -1.675,1.8504 -1.2356,2.0906 0.2673,0.1461 1.8766,1.3783 3.5764,2.7383 3.1689,2.5355 4.5861,4.2345 4.5802,5.4912 -0.01,2.2252 -2.0049,6.5915 -5.2247,11.4373 -4.3239,6.5074 -11.099,12.9352 -15.7774,14.9684 -0.6885,0.2992 -1.1055,0.6499 -1.1055,0.9297 0,0.2471 -0.322,1.1366 -0.7154,1.9765 l -0.7153,1.5272 0.091,11.6406 c 0.076,9.641 0.031,11.6446 -0.2601,11.6637 -1.0557,0.069 -34.8449,0.094 -35.6637,0.026 z"
           style="fill:#c2242d;stroke-width:0.26012641"
           inkscape:connector-curvature="0" />
        <path
           id="path13846"
           d="m 1468.3078,198.2669 c -1.6412,-0.8633 -4.1375,-2.7876 -5.6685,-4.3698 -1.3378,-1.3823 -1.2367,-1.8158 1.3613,-5.8404 1.1266,-1.7452 2.6605,-4.168 3.4087,-5.3841 2.7067,-4.3997 6.9144,-10.656 7.2573,-10.7908 0.9521,-0.3742 7.6669,4.5135 9.0703,6.6022 1.0508,1.564 0.7823,2.3449 -1.9918,5.793 -0.6524,0.8108 -3.4688,4.4033 -6.2586,7.9832 -2.7899,3.5799 -5.216,6.5698 -5.3914,6.6441 -0.1753,0.074 -0.9797,-0.2125 -1.7873,-0.6374 z"
           style="fill:#c2242d;stroke-width:0.26012641"
           inkscape:connector-curvature="0" />
        <path
           id="path13844"
           d="m 1462.3459,184.281 c 0.3871,-4.3731 -0.6648,-5.6721 -6.0243,-7.4399 -1.1695,-0.3858 -2.2581,-0.86 -2.419,-1.0538 -0.2262,-0.2727 0.2463,-1.4323 2.0874,-5.1227 3.3115,-6.6379 4.3455,-8.2819 5.2086,-8.2819 0.9892,0 3.3134,0.8533 5.6851,2.0872 2.1408,1.1138 5.4812,3.9092 5.4812,4.587 0,0.2117 -1.6269,3.2156 -3.6154,6.6752 -5.4286,9.4447 -6.1121,10.5823 -6.3579,10.5823 -0.1242,0 -0.1447,-0.9151 -0.046,-2.0334 z"
           style="fill:#c2242d;stroke-width:0.26012641"
           inkscape:connector-curvature="0" />
        <path
           id="path5967"
           d="m 1392.5033,148.0107 c -0.2835,-0.4649 -0.5164,-1.0795 -0.5176,-1.3656 0,-0.8163 2.7655,-4.689 4.9753,-6.959 1.6927,-1.7388 2.1036,-2.0362 2.6136,-1.8917 1.4012,0.3967 2.0553,0.7507 1.983,1.0731 -0.1281,0.5706 -7.8558,9.9594 -8.2099,9.9745 -0.1809,0.01 -0.5609,-0.3663 -0.8444,-0.8313 z"
           style="fill:#c2242d;stroke-width:0.26012641"
           inkscape:connector-curvature="0" />
        <path
           id="path13824"
           d="m 1458.7391,251.6559 c -0.072,-0.1157 -0.2068,-2.8958 -0.3006,-6.178 -0.094,-3.2822 -0.2882,-6.4339 -0.432,-7.0037 -0.2655,-1.0527 -1.2477,-2.1645 -3.5966,-4.071 -0.6404,-0.5197 -1.0788,-1.0344 -0.9742,-1.1438 0.1045,-0.1094 0.9239,0.042 1.8208,0.3365 2.5588,0.8399 4.7833,1.1687 7.8089,1.1543 1.538,-0.01 2.7964,0.071 2.7964,0.1736 0,0.1028 -0.9446,0.8777 -2.0991,1.7222 -1.1545,0.8444 -2.1909,1.7172 -2.3031,1.9396 -0.1122,0.2224 -0.3479,1.3408 -0.5238,2.4854 -0.7643,4.9739 -1.8269,10.7952 -1.9705,10.7952 -0.053,0 -0.1547,-0.095 -0.2262,-0.2103 z"
           style="fill:#272624;stroke-width:0.26012641"
           inkscape:connector-curvature="0" />
        <path
           id="path13822"
           d="m 1473.7486,230.0532 c -1.3865,-0.4791 -2.3413,-1.1777 -5.935,-4.3419 -1.145,-1.0081 -2.9545,-2.51 -4.0211,-3.3374 -1.7883,-1.3875 -1.9653,-1.4686 -2.2761,-1.0437 -0.1853,0.2534 -0.3369,0.8892 -0.3369,1.4128 0,1.192 -0.4903,2.6436 -0.8523,2.523 -0.15,-0.05 -0.4739,-0.7869 -0.7198,-1.6376 -0.2458,-0.8507 -0.6269,-2.1093 -0.847,-2.7969 -0.2201,-0.6877 -0.3219,-1.2107 -0.2262,-1.1622 1.6377,0.8283 1.5621,0.8197 2.7079,0.307 2.3213,-1.0388 6.8711,-5.2633 11.8102,-10.9659 1.6418,-1.8957 3.0409,-3.4467 3.109,-3.4467 0.068,0 0.4124,0.1891 0.765,0.4201 0.5942,0.3894 0.6926,0.3864 1.3438,-0.04 0.8211,-0.538 6.4998,-6.1688 8.9747,-8.8989 0.9403,-1.0373 1.8299,-1.886 1.9769,-1.886 0.1471,0 1.7532,1.1865 3.5692,2.6366 3.3842,2.7024 4.8092,4.3856 4.8032,5.6734 -0.015,3.319 -4.5971,11.5006 -9.5552,17.0627 -2.4724,2.7737 -5.9371,5.9838 -7.9616,7.3767 -1.0218,0.703 -4.6665,2.6478 -4.9088,2.6193 -0.04,-0.01 -0.6787,-0.218 -1.4199,-0.4742 z"
           style="fill:#333333;stroke-width:0.26012641"
           inkscape:connector-curvature="0" />
        <path
           id="path13820"
           d="m 1422.8772,188.3301 c -1.3369,-2.0404 -2.1901,-4.3912 -3.6049,-9.9321 -1.1431,-4.4769 -1.714,-6.2591 -2.2484,-7.0192 -0.3939,-0.5603 -1.7697,-1.8224 -3.0573,-2.8047 -3.9386,-3.0044 -5.261,-4.2969 -7.6966,-7.5222 -1.2884,-1.7063 -3.2046,-4.1058 -4.2582,-5.3322 l -1.9155,-2.2298 2.1339,-2.1218 c 1.7736,-1.7633 3.5621,-4.1074 4.9731,-6.5175 0.2321,-0.3964 0.5965,-0.2563 3.3816,1.3008 1.7168,0.9598 4.671,2.5016 6.5647,3.4261 2.4026,1.173 3.9749,2.142 5.2026,3.2063 4.1908,3.6333 5.297,4.4551 6.4731,4.8091 0.6809,0.2049 3.5215,0.4853 6.4457,0.6364 4.6264,0.2389 8.5048,0.7098 8.8721,1.0771 0.1076,0.1077 -2.1647,5.3358 -3.7802,8.6975 -0.7785,1.6199 -0.6828,1.9968 0.6745,2.6563 l 1.1883,0.5773 -0.7883,0.9952 c -1.3269,1.6754 -1.3197,1.6733 -3.249,0.9472 -2.0245,-0.762 -3.6906,-0.8329 -4.4964,-0.1912 -0.3104,0.2471 -1.1752,1.6785 -1.9217,3.1807 -0.7466,1.5022 -2.5509,4.4872 -4.0095,6.6332 -1.4587,2.1461 -2.9274,4.3994 -3.2637,5.0075 -0.6901,1.2476 -1.0644,1.3677 -1.6199,0.52 z"
           style="fill:#333333;stroke-width:0.26012641"
           inkscape:connector-curvature="0" />
        <path
           id="path5963"
           d="m 1392.5033,148.0107 c -0.2835,-0.4649 -0.5164,-1.0795 -0.5176,-1.3656 0,-0.8163 2.7655,-4.689 4.9753,-6.959 1.6927,-1.7388 2.1036,-2.0362 2.6136,-1.8917 1.4012,0.3967 2.0553,0.7507 1.983,1.0731 -0.1281,0.5706 -7.8558,9.9594 -8.2099,9.9745 -0.1809,0.01 -0.5609,-0.3663 -0.8444,-0.8313 z"
           style="fill:#272624;stroke-width:0.26012641"
           inkscape:connector-curvature="0" />
      </g>
      <text
         id="text2109"
         y="184.49301"
         x="107.55785"
         style="font-style:normal;font-weight:normal;font-size:10.58333302px;line-height:1.25;font-family:sans-serif;letter-spacing:0px;word-spacing:0px;fill:#000000;fill-opacity:1;stroke:none;stroke-width:0.26458332"
         xml:space="preserve"><tspan
           style="font-size:14.11111069px;stroke-width:0.26458332"
           y="184.49301"
           x="107.55785"
           id="tspan2107"
           sodipodi:role="line">EHPF</tspan></text>
    </g>
  </g>
</svg>
