<?xml version="1.0" encoding="UTF-8" standalone="no"?>
<!-- Created with Inkscape (http://www.inkscape.org/) -->

<svg
   xmlns:dc="http://purl.org/dc/elements/1.1/"
   xmlns:cc="http://creativecommons.org/ns#"
   xmlns:rdf="http://www.w3.org/1999/02/22-rdf-syntax-ns#"
   xmlns:svg="http://www.w3.org/2000/svg"
   xmlns="http://www.w3.org/2000/svg"
   xmlns:sodipodi="http://sodipodi.sourceforge.net/DTD/sodipodi-0.dtd"
   xmlns:inkscape="http://www.inkscape.org/namespaces/inkscape"
   width="48.378532mm"
   height="65.472771mm"
   viewBox="0 0 171.42 231.99013"
   id="svg5171"
   version="1.1"
   inkscape:version="0.91 r13725"
   sodipodi:docname="hop_icon.svg">
  <defs
     id="defs5173" />
  <sodipodi:namedview
     id="base"
     pagecolor="#ffffff"
     bordercolor="#666666"
     borderopacity="1.0"
     inkscape:pageopacity="0.0"
     inkscape:pageshadow="2"
     inkscape:zoom="0.98994949"
     inkscape:cx="76.472583"
     inkscape:cy="-136.20356"
     inkscape:document-units="px"
     inkscape:current-layer="layer1"
     showgrid="false"
     fit-margin-top="0"
     fit-margin-left="0"
     fit-margin-right="0"
     fit-margin-bottom="0"
     inkscape:window-width="1680"
     inkscape:window-height="972"
     inkscape:window-x="0"
     inkscape:window-y="25"
     inkscape:window-maximized="1" />
  <metadata
     id="metadata5176">
    <rdf:RDF>
      <cc:Work
         rdf:about="">
        <dc:format>image/svg+xml</dc:format>
        <dc:type
           rdf:resource="http://purl.org/dc/dcmitype/StillImage" />
        <dc:title></dc:title>
      </cc:Work>
    </rdf:RDF>
  </metadata>
  <g
     inkscape:label="Layer 1"
     inkscape:groupmode="layer"
     id="layer1"
     transform="translate(258.74984,755.30325)">
    <g
       id="g8655"
       transform="matrix(1.4220558,0,0,1.4220558,169.23282,-1737.0957)">
      <path
         id="path5665-8-3-6-3-3-0-1"
         d="m -241.41954,692.71516 a 46.232153,46.232153 0 0 0 -19.16287,37.40829 46.232153,46.232153 0 0 0 19.143,37.40838 46.232153,46.232153 0 0 0 19.16467,-37.40838 46.232153,46.232153 0 0 0 -19.1448,-37.40829 z"
         style="opacity:1;fill:#4d4d4d;fill-opacity:1;stroke:#000000;stroke-width:4.6232152;stroke-linecap:square;stroke-linejoin:round;stroke-miterlimit:4;stroke-dasharray:none;stroke-opacity:1"
         inkscape:connector-curvature="0" />
      <path
         sodipodi:nodetypes="ccccsc"
         inkscape:connector-curvature="0"
         id="path5665-8-3-8-9-9-1-4"
         d="m -253.20032,787.41706 c -13.85065,-5.2721 -24.3343,-16.86468 -28.19188,-31.17393 -3.81739,-14.31634 -0.54187,-29.59494 8.80872,-41.08825 13.85122,5.27155 28.18614,16.79925 32.04421,31.1087 1.85041,6.94157 5.04409,17.91016 2.74325,24.77852 -2.44462,7.29757 -10.58695,10.4543 -15.4043,16.37496 z"
         style="opacity:1;fill:#333333;fill-opacity:1;stroke:#000000;stroke-width:4.6232152;stroke-linecap:square;stroke-linejoin:round;stroke-miterlimit:4;stroke-dasharray:none;stroke-opacity:1" />
      <path
         sodipodi:nodetypes="ccccsc"
         inkscape:connector-curvature="0"
         id="path5665-8-3-8-9-9-1-4-1"
         d="m -226.30233,787.41706 c 13.85065,-5.2721 24.3343,-16.86468 28.19188,-31.17393 3.81739,-14.31634 0.54187,-29.59494 -8.80872,-41.08825 -13.85122,5.27155 -28.18614,16.79925 -32.04421,31.1087 -1.85041,6.94157 -5.04409,17.91016 -2.74325,24.77852 2.44462,7.29757 10.58695,10.4543 15.4043,16.37496 z"
         style="opacity:1;fill:#333333;fill-opacity:1;stroke:#000000;stroke-width:4.6232152;stroke-linecap:square;stroke-linejoin:round;stroke-miterlimit:4;stroke-dasharray:none;stroke-opacity:1" />
      <path
         id="path5665-8-3-6-3-3-0"
         d="m -241.41742,722.08966 a 46.232153,46.232153 0 0 0 -19.16287,37.40829 46.232153,46.232153 0 0 0 19.143,37.40838 46.232153,46.232153 0 0 0 19.16467,-37.40838 46.232153,46.232153 0 0 0 -19.1448,-37.40829 z"
         style="opacity:1;fill:#4d4d4d;fill-opacity:1;stroke:#000000;stroke-width:4.6232152;stroke-linecap:square;stroke-linejoin:round;stroke-miterlimit:4;stroke-dasharray:none;stroke-opacity:1"
         inkscape:connector-curvature="0" />
      <path
         inkscape:connector-curvature="0"
         id="path8174-67-8"
         d="m -241.42858,792.28141 0,56.18814"
         style="fill:none;fill-rule:evenodd;stroke:#000000;stroke-width:10;stroke-linecap:round;stroke-linejoin:miter;stroke-miterlimit:4;stroke-dasharray:none;stroke-opacity:1" />
      <path
         sodipodi:nodetypes="ccccsc"
         inkscape:connector-curvature="0"
         id="path5665-8-3-8-9-9-1"
         d="m -253.17307,810.87287 c -14.74323,-1.50765 -27.87003,-9.99185 -35.29968,-22.81511 -7.39265,-12.84051 -8.18314,-28.44627 -2.12585,-41.96806 14.74363,1.50696 31.57369,8.93171 39.00386,21.75504 3.58397,6.22612 9.5077,15.99438 9.06293,23.22421 -0.47258,7.68162 -7.52044,12.83818 -10.64126,19.80392 z"
         style="opacity:1;fill:#333333;fill-opacity:1;stroke:#000000;stroke-width:4.6232152;stroke-linecap:square;stroke-linejoin:round;stroke-miterlimit:4;stroke-dasharray:none;stroke-opacity:1" />
      <path
         sodipodi:nodetypes="ccccsc"
         inkscape:connector-curvature="0"
         id="path5665-8-3-8-9-9"
         d="m -228.19317,810.87287 c 14.74323,-1.50765 27.87003,-9.99185 35.29968,-22.81511 7.39265,-12.84051 8.18314,-28.44627 2.12585,-41.96806 -14.74363,1.50696 -31.57369,8.93171 -39.00386,21.75504 -3.58397,6.22612 -9.5077,15.99438 -9.06293,23.22421 0.47258,7.68162 7.52044,12.83818 10.64126,19.80392 z"
         style="opacity:1;fill:#333333;fill-opacity:1;stroke:#000000;stroke-width:4.6232152;stroke-linecap:square;stroke-linejoin:round;stroke-miterlimit:4;stroke-dasharray:none;stroke-opacity:1" />
      <path
         id="path5665-8-3-6-3-3"
         d="m -241.41954,757.81097 a 46.232153,46.232153 0 0 0 -19.16287,37.40829 46.232153,46.232153 0 0 0 19.143,37.40838 46.232153,46.232153 0 0 0 19.16467,-37.40838 46.232153,46.232153 0 0 0 -19.1448,-37.40829 z"
         style="opacity:1;fill:#4d4d4d;fill-opacity:1;stroke:#000000;stroke-width:4.6232152;stroke-linecap:square;stroke-linejoin:round;stroke-miterlimit:4;stroke-dasharray:none;stroke-opacity:1"
         inkscape:connector-curvature="0" />
      <path
         sodipodi:nodetypes="ccccsc"
         inkscape:connector-curvature="0"
         id="path5665-8-3-8-8-5"
         d="m -233.84589,830.95688 c -13.52183,6.06595 -29.13208,5.28182 -41.97797,-2.10863 -12.82247,-7.42388 -21.30995,-20.54362 -22.82507,-35.28248 13.52185,-6.06675 31.80947,-8.05175 44.65585,-0.6615 6.21687,3.59998 16.2311,9.09769 19.46084,15.58128 3.43155,6.88877 -0.0938,14.87841 0.68635,22.47133 z"
         style="opacity:1;fill:#333333;fill-opacity:1;stroke:#000000;stroke-width:4.6232152;stroke-linecap:square;stroke-linejoin:round;stroke-miterlimit:4;stroke-dasharray:none;stroke-opacity:1" />
      <path
         sodipodi:nodetypes="ccccsc"
         inkscape:connector-curvature="0"
         id="path5665-8-3-8-9"
         d="m -247.53136,832.38545 c 13.52183,6.06595 29.13208,5.28182 41.97797,-2.10863 12.82248,-7.42388 21.30995,-20.54362 22.82507,-35.28248 -13.52184,-6.06675 -31.80947,-8.05175 -44.65585,-0.66151 -6.21687,3.59999 -16.2311,9.09769 -19.46083,15.58129 -3.43155,6.88877 0.0938,14.87841 -0.68636,22.47133 z"
         style="opacity:1;fill:#333333;fill-opacity:1;stroke:#000000;stroke-width:4.6232152;stroke-linecap:square;stroke-linejoin:round;stroke-miterlimit:4;stroke-dasharray:none;stroke-opacity:1" />
    </g>
  </g>
</svg>
