<?xml version="1.0" encoding="UTF-8" standalone="no"?>
<!-- Created with Inkscape (http://www.inkscape.org/) -->

<svg
   xmlns:dc="http://purl.org/dc/elements/1.1/"
   xmlns:cc="http://creativecommons.org/ns#"
   xmlns:rdf="http://www.w3.org/1999/02/22-rdf-syntax-ns#"
   xmlns:svg="http://www.w3.org/2000/svg"
   xmlns="http://www.w3.org/2000/svg"
   xmlns:sodipodi="http://sodipodi.sourceforge.net/DTD/sodipodi-0.dtd"
   xmlns:inkscape="http://www.inkscape.org/namespaces/inkscape"
   width="519.25867mm"
   height="414.19342mm"
   viewBox="0 0 519.25867 414.19342"
   version="1.1"
   id="svg885"
   inkscape:version="0.92.3 (2405546, 2018-03-11)"
   sodipodi:docname="uk_eu_flags.svg">
  <defs
     id="defs879" />
  <sodipodi:namedview
     id="base"
     pagecolor="#ffffff"
     bordercolor="#666666"
     borderopacity="1.0"
     inkscape:pageopacity="0.0"
     inkscape:pageshadow="2"
     inkscape:zoom="0.27"
     inkscape:cx="1500.2353"
     inkscape:cy="836.59261"
     inkscape:document-units="mm"
     inkscape:current-layer="layer1"
     showgrid="false"
     fit-margin-top="0"
     fit-margin-left="0"
     fit-margin-right="0"
     fit-margin-bottom="0"
     inkscape:window-width="1920"
     inkscape:window-height="1057"
     inkscape:window-x="-8"
     inkscape:window-y="-8"
     inkscape:window-maximized="1" />
  <metadata
     id="metadata882">
    <rdf:RDF>
      <cc:Work
         rdf:about="">
        <dc:format>image/svg+xml</dc:format>
        <dc:type
           rdf:resource="http://purl.org/dc/dcmitype/StillImage" />
        <dc:title></dc:title>
      </cc:Work>
    </rdf:RDF>
  </metadata>
  <g
     inkscape:label="Layer 1"
     inkscape:groupmode="layer"
     id="layer1"
     transform="translate(284.48235,74.249729)">
    <g
       id="g1637">
      <path
         style="fill:#e5d724;stroke-width:0.35277778"
         d="M 89.92345,337.38606 C 86.49967,328.50756 80.74114,319.94515 73.00917,312.236 56.52269,295.79821 34.95953,286.38187 5.42605,282.72339 c -5.63201,-0.69769 -21.64193,-0.58237 -27.14022,0.19551 -27.58518,3.90246 -65.089913,13.19625 -103.38756,25.61971 -30.07639,9.75653 -40.83898,12.23712 -58.1482,13.4022 -21.43207,1.44258 -41.58315,-1.12451 -59.26008,-7.54927 -4.81573,-1.75027 -13.62039,-5.58108 -14.69878,-6.39526 -0.80897,-0.61076 -1.41627,-4.98161 -6.14864,-44.25258 -3.63072,-30.12905 -4.37943,-36.13252 -7.58512,-60.82081 -1.45887,-11.23526 -2.57333,-20.55583 -2.47658,-20.71236 0.26421,-0.42751 -1.18881,-12.19398 -1.78101,-14.42239 -0.28359,-1.06715 -0.9261,-6.06778 -1.42779,-11.1125 -0.76462,-7.68858 -1.36173,-13.2206 -3.19856,-29.63334 -0.0869,-0.77611 -0.62687,-5.14173 -1.20002,-9.70138 -2.19488,-17.461099 -3.57651,-29.352405 -3.4277,-29.501218 0.0851,-0.08514 3.39084,1.130188 7.346,2.700733 13.81448,5.485564 25.81982,9.109999 35.49729,10.716695 9.97429,1.65598 11.63135,1.79332 21.43558,1.77661 10.91914,-0.0186 14.6379,-0.45715 26.81111,-3.161743 16.96021,-3.768147 36.55473,-10.14547 61.73611,-20.092911 4.26862,-1.686239 8.99143,-3.540562 10.49514,-4.120726 l 2.73403,-1.054838 v -1.356067 c 0,-1.595593 -2.03424,-25.277216 -6.1808,-71.953756 -1.64528,-18.520484 -2.99142,-33.818679 -2.99142,-33.995989 0,-0.524887 1.34057,-0.07132 5.83604,1.974547 14.36717,6.53844 30.00599,9.93581 47.786181,10.381051 12.745575,0.319165 25.266025,-0.865682 39.909859,-3.77679 20.23193,-4.021988 36.69587,-9.004099 79.85819,-24.165679 35.16835,-12.353549 55.49936,-18.51601 74.43611,-22.562071 21.7514,-4.647444 40.69229,-4.529018 57.95973,0.362387 19.19694,5.437973 35.21714,17.108271 45.8554,33.404487 3.78714,5.801279 7.4585,13.931417 9.59668,21.251662 1.04902,3.591349 1.13115,4.248637 1.10187,8.819445 -0.11356,17.72987 -4.00748,231.907271 -4.22624,232.457331 -0.20264,0.50942 -0.69593,-0.56331 -1.94663,-4.23333 -8.41523,-24.69323 -29.21049,-43.68341 -56.40814,-51.51171 -16.24528,-4.67588 -32.25775,-5.50011 -53.87294,-2.77304 -12.48019,1.57455 -33.6416,5.41901 -35.21252,6.39717 -0.63087,0.39282 -0.77272,0.72398 -0.62332,1.45549 0.1512,0.74048 2.08231,34.54666 2.78465,48.74837 0.072,1.45521 0.39737,7.01146 0.72309,12.34722 1.31932,21.61296 2.37113,39.70818 2.68619,46.21389 0.1832,3.78354 0.57782,11.24479 0.8769,16.58056 2.10485,37.55189 2.25432,41.275 1.65686,41.275 -0.16337,0 -0.74087,-1.15094 -1.28334,-2.55764 z"
         id="path1621"
         inkscape:connector-curvature="0" />
      <path
         style="fill:#ffffff;stroke-width:0.35277778"
         d="M 89.92345,337.38606 C 86.49967,328.50756 80.74114,319.94515 73.00917,312.236 56.52316,295.79867 34.94131,286.37443 5.42605,282.72413 c -4.89893,-0.60586 -21.30738,-0.60188 -25.75278,0.006 -9.83351,1.34528 -28.836928,4.91102 -41.098608,7.71161 -6.809282,1.55526 -28.782088,7.30388 -34.572222,9.04494 -13.3216,4.00573 -18.83685,5.721 -29.10417,9.05165 -30.07639,9.75653 -40.83898,12.23712 -58.1482,13.4022 -22.24835,1.49751 -42.99589,-1.30281 -60.73791,-8.19781 -3.93236,-1.52824 -12.34364,-5.22605 -13.39369,-5.88825 -0.59719,-0.37666 -1.58253,-7.65062 -5.97533,-44.11112 -1.55454,-12.90285 -3.29591,-27.3491 -3.86971,-32.10278 -0.5738,-4.75368 -2.15603,-17.53306 -3.51608,-28.39861 -1.36005,-10.86556 -2.81341,-22.93056 -3.2297,-26.81112 -0.41629,-3.88055 -0.98041,-7.8493 -1.2536,-8.81944 -0.27318,-0.97014 -0.90562,-5.89139 -1.40542,-10.93611 -0.74017,-7.47092 -1.80368,-17.32874 -3.19699,-29.63334 -0.0879,-0.77611 -0.63046,-5.30048 -1.20573,-10.05416 -2.82719,-23.362236 -3.48965,-29.078916 -3.38213,-29.186432 0.0643,-0.06424 3.35285,1.168182 7.30801,2.738727 13.81448,5.485564 25.81982,9.109999 35.49729,10.716695 9.97429,1.65598 11.63135,1.79332 21.43558,1.77661 10.91914,-0.0186 14.6379,-0.45715 26.81111,-3.161743 16.96021,-3.768147 36.55473,-10.14547 61.73611,-20.092911 4.26862,-1.686239 8.99143,-3.540562 10.49514,-4.120726 l 2.73403,-1.054838 v -1.356067 c 0,-1.595593 -2.03424,-25.277216 -6.1808,-71.953756 -1.64528,-18.520484 -2.99142,-33.818679 -2.99142,-33.995989 0,-0.524887 1.34057,-0.07132 5.83604,1.974547 14.36717,6.53844 30.00599,9.93581 47.786181,10.381051 12.745575,0.319165 25.266025,-0.865682 39.909859,-3.77679 20.23193,-4.021988 36.69587,-9.004099 79.85819,-24.165679 35.16835,-12.353549 55.49936,-18.51601 74.43611,-22.562071 21.7514,-4.647444 40.69229,-4.529018 57.95973,0.362387 19.19694,5.437973 35.21714,17.108271 45.8554,33.404487 3.78714,5.801279 7.4585,13.931417 9.59668,21.251662 1.04902,3.591349 1.13115,4.248637 1.10187,8.819445 -0.11356,17.72987 -4.00748,231.907271 -4.22624,232.457331 -0.20264,0.50942 -0.69593,-0.56331 -1.94663,-4.23333 -8.41523,-24.69323 -29.21049,-43.68341 -56.40814,-51.51171 -16.24436,-4.67562 -32.24915,-5.49966 -53.87294,-2.77376 -13.0422,1.6441 -34.55138,5.6167 -35.45579,6.54844 -0.39667,0.40867 -0.25062,4.3992 0.89824,24.54017 0.75456,13.22868 1.34775,24.49993 1.31819,25.04722 -0.0296,0.5473 0.12845,2.42383 0.35108,4.17008 0.22268,1.74625 0.57972,6.74688 0.79347,11.11251 0.21372,4.36562 0.77403,14.36687 1.24517,22.225 0.4711,7.85812 1.01427,17.54187 1.20706,21.51944 0.19279,3.97757 0.58706,11.28007 0.87612,16.22778 0.28907,4.94771 0.52212,9.94833 0.51792,11.1125 -0.004,1.16417 0.31655,7.67292 0.71275,14.46389 0.79971,13.70644 0.86219,16.05139 0.42764,16.05139 -0.16337,0 -0.74087,-1.15094 -1.28334,-2.55764 z m 11.98348,-209.55001 c 1.48667,-1.60072 2.92124,-3.03292 3.18791,-3.18264 0.306,-0.17184 1.78234,0.44615 4.00311,1.67569 1.93509,1.07136 3.7,1.94793 3.922,1.94793 0.46133,0 0.41544,-0.17765 -1.2756,-4.93889 -0.65469,-1.84327 -1.19035,-3.67048 -1.19042,-4.06046 -7e-5,-0.40557 1.35887,-2.16663 3.1749,-4.11438 1.74625,-1.87291 3.175,-3.49851 3.175,-3.61245 0,-0.42211 -1.67729,-0.18204 -4.90002,0.70132 -2.74669,0.75288 -3.39111,0.82816 -3.7726,0.44072 -0.25309,-0.25699 -0.99395,-1.97538 -1.64642,-3.81864 -0.65246,-1.84326 -1.33604,-3.32466 -1.51906,-3.29198 -0.18298,0.0327 -0.82723,1.98767 -1.43164,4.34445 -0.60438,2.35678 -1.23938,4.42307 -1.41111,4.59177 -0.1717,0.1687 -2.13783,0.80833 -4.36915,1.42141 -2.23132,0.61309 -4.19301,1.24376 -4.35935,1.40151 -0.16633,0.15775 1.20812,1.10112 3.05435,2.0964 1.84623,0.99526 3.51744,2.00315 3.7138,2.23975 0.33002,0.39767 0.1724,1.25314 -1.52485,8.27516 -0.32921,1.36215 0.3749,0.89187 3.16915,-2.11667 z m 24.16912,-33.2493 c 1.83561,-1.843264 3.46847,-3.351389 3.6286,-3.351389 0.16016,0 1.77475,0.873125 3.588,1.940278 3.31688,1.952093 4.27873,2.313259 3.99295,1.499306 -0.0852,-0.242535 -0.77146,-2.22933 -1.5251,-4.415099 l -1.37022,-3.974126 3.49783,-3.510989 c 1.92376,-1.931046 3.40938,-3.599413 3.30129,-3.70748 -0.10806,-0.10807 -2.00494,0.188475 -4.21534,0.658989 -2.39811,0.51048 -4.15389,0.727499 -4.3537,0.538127 -0.18419,-0.174543 -0.99014,-2.182787 -1.79102,-4.462762 -0.80088,-2.279975 -1.59554,-4.114221 -1.7659,-4.076104 -0.17039,0.03812 -0.8782,2.245014 -1.57296,4.904215 -0.91839,3.515152 -1.45236,4.95331 -1.95619,5.268655 -0.38114,0.238559 -2.16458,0.711037 -3.96325,1.049951 -1.79864,0.338914 -3.34846,0.742763 -3.44406,0.897446 -0.0956,0.154682 1.18939,1.104656 2.85552,2.111057 1.66614,1.006397 3.11591,2.055386 3.22171,2.331082 0.1058,0.275695 -0.3029,2.37297 -0.90819,4.660614 -1.16533,4.404272 -1.26259,4.989618 -0.82896,4.989618 0.14933,0 1.77338,-1.508125 3.60899,-3.351389 z m 7.00154,-42.333334 c 1.92042,-1.843264 3.67951,-3.351389 3.9091,-3.351389 0.22962,0 1.90105,0.873125 3.71429,1.940278 3.1786,1.870717 4.07229,2.238569 4.07229,1.676213 0,-0.145235 -0.65401,-2.226596 -1.45337,-4.625241 l -1.45338,-4.36118 3.28729,-3.301019 c 1.80802,-1.815561 3.16918,-3.419162 3.02475,-3.563557 -0.14439,-0.144399 -1.94165,0.02155 -3.9939,0.368762 -2.05225,0.347218 -3.86595,0.496722 -4.03045,0.332229 -0.1645,-0.164494 -0.89905,-2.042058 -1.63237,-4.172363 -0.73332,-2.130309 -1.48837,-3.844943 -1.67789,-3.8103 -0.18954,0.03464 -0.95669,2.019018 -1.70483,4.409722 -0.74814,2.390705 -1.54555,4.534722 -1.77207,4.764486 -0.22652,0.229765 -2.38379,0.78539 -4.79394,1.234723 -2.41017,0.449333 -4.37857,0.97572 -4.37426,1.169747 0.004,0.194028 1.57582,1.25482 3.49221,2.357318 1.91636,1.102494 3.53177,2.146878 3.58973,2.320847 0.058,0.173973 -0.45434,2.261189 -1.13852,4.638259 -1.32288,4.595954 -1.44593,5.323854 -0.90018,5.323854 0.18909,0 1.91509,-1.508125 3.8355,-3.351389 z M 18.64957,18.551458 c 0.19092,0.0064 2.21402,0.75348 4.49577,1.660122 2.28175,0.906646 4.23782,1.559264 4.34682,1.450263 0.109,-0.109001 -0.60441,-1.991032 -1.58535,-4.18229 -0.98095,-2.191258 -1.78354,-4.292134 -1.78354,-4.668615 0,-0.376485 1.54267,-2.370381 3.42817,-4.4308859 C 29.74742,5.9802354 30.79256,4.59766 30.45923,4.533465 30.17303,4.478345 28.13556,5.076528 25.93153,5.8627498 23.20314,6.8360214 21.79095,7.181666 21.50671,6.9457635 21.27709,6.7551964 20.55472,5.362084 19.90145,3.849958 18.4621,0.518329 18.12057,0.009531 17.7385,0.627729 c -0.15039,0.243335 -0.70061,2.195537 -1.22271,4.338224 -0.5221,2.142688 -1.12744,4.0735607 -1.3452,4.2908295 -0.21776,0.2172688 -2.34572,1.0741275 -4.7288,1.9041255 -2.38308,0.829998 -4.406,1.627417 -4.49538,1.772038 -0.0894,0.144621 1.50511,0.933178 3.54333,1.752346 2.03821,0.819167 3.78801,1.622347 3.88844,1.784844 0.10042,0.162496 -0.21897,1.879607 -0.70977,3.815796 -1.42609,5.625892 -1.35832,5.674406 2.38193,1.705109 1.78865,-1.898195 3.40831,-3.446007 3.59923,-3.439583 z m 97.27092,0.09988 c 1.2476,-1.309688 2.97928,-3.152596 3.84821,-4.095348 l 1.57984,-1.714098 3.95126,1.981627 c 2.29062,1.148792 3.95125,1.799106 3.95125,1.54734 0,-0.238859 -0.67159,-2.362585 -1.49239,-4.719388 L 126.2663,7.3663629 129.52255,3.834616 c 2.83446,-3.074236 3.72505,-4.321478 3.08578,-4.321478 -0.0938,0 -1.94494,0.482473 -4.11367,1.072158 -2.16877,0.589686 -4.06951,0.945836 -4.22388,0.791447 -0.15441,-0.154393 -0.81495,-1.75835 -1.46787,-3.56435 -0.65293,-1.806 -1.32871,-3.313088 -1.50174,-3.349086 -0.17304,-0.03599 -0.91024,1.826105 -1.6382,4.138006 -0.72796,2.311897 -1.46854,4.348438 -1.64574,4.525645 -0.1772,0.177204 -2.19357,0.825652 -4.48081,1.440991 -2.28727,0.61534 -4.20959,1.27755 -4.27186,1.4715778 -0.0623,0.1940278 1.39263,1.1465278 3.23307,2.1166667 2.18454,1.1515337 3.34652,1.9684185 3.34705,2.3530385 0,0.32403 -0.55481,2.519539 -1.23391,4.878906 -1.12758,3.91753 -1.46311,5.644445 -1.09668,5.644445 0.0759,0 1.1588,-1.071563 2.4064,-2.38125 z M 49.83696,-2.451334 c 2.00061,-2.244629 3.82003,-4.016018 4.04314,-3.936425 5.02439,1.792366 7.27564,2.499907 7.43791,2.33764 0.10998,-0.109982 -0.43509,-1.760746 -1.21128,-3.668363 -0.77618,-1.907618 -1.41124,-3.73434 -1.41124,-4.059386 0,-0.325042 1.58156,-2.402226 3.51457,-4.615963 2.61483,-2.994569 3.3588,-4.051022 2.90612,-4.126714 -0.33465,-0.05595 -2.33651,0.547353 -4.44858,1.340683 -2.11207,0.793327 -4.03542,1.367476 -4.27411,1.275881 -0.23869,-0.09159 -1.03731,-1.690885 -1.7747,-3.553979 -0.7374,-1.863093 -1.4961,-3.335655 -1.68599,-3.272356 -0.1899,0.0633 -0.88377,2.091157 -1.54193,4.506355 -0.65817,2.415195 -1.38732,4.5833 -1.62033,4.81801 -0.23301,0.234706 -2.1687,1.081793 -4.30154,1.882412 -5.01304,1.881783 -5.06795,1.913699 -4.1437,2.408343 0.40386,0.21614 1.89768,0.806849 3.3196,1.31269 1.42193,0.505841 2.78287,1.107016 3.02432,1.335948 0.34845,0.330373 0.18471,1.343991 -0.79375,4.913729 -1.31651,4.803083 -1.38641,5.182633 -0.95437,5.182633 0.15311,0 1.91524,-1.836511 3.91586,-4.081138 z M 90.12972,-5.96511 c 1.24083,-1.439273 2.51979,-2.621086 2.84216,-2.62625 0.32233,-0.0052 1.83045,0.523077 3.35138,1.173871 3.8106,1.630557 4.3536,1.783105 4.34887,1.221761 -0.004,-0.255612 -0.63796,-2.184008 -1.41284,-4.285325 -0.80401,-2.180192 -1.29459,-4.0207 -1.14261,-4.286674 0.14647,-0.256349 1.61569,-2.004614 3.26492,-3.885036 1.64924,-1.880418 3.05153,-3.562978 3.1162,-3.739021 0.2009,-0.546855 -0.69092,-0.363689 -4.64588,0.954155 -2.10326,0.700828 -3.95037,1.137391 -4.10474,0.970139 -0.15438,-0.167252 -0.8762,-1.941608 -1.60408,-3.943012 -0.77784,-2.138807 -1.45341,-3.508876 -1.63883,-3.323473 -0.1735,0.173492 -0.85767,2.349916 -1.52037,4.836495 -0.66273,2.486579 -1.34239,4.65848 -1.51035,4.826444 -0.16795,0.167968 -2.33157,0.983086 -4.80804,1.811373 -2.47646,0.828287 -4.50575,1.656063 -4.50952,1.839504 -0.004,0.183437 1.47637,0.945186 3.28923,1.692775 1.81285,0.74759 3.50869,1.565156 3.76851,1.81682 0.39377,0.381424 0.29104,1.13707 -0.61736,4.54097 -1.41877,5.316213 -1.41175,5.627677 0.0938,4.168465 0.65094,-0.630915 2.19876,-2.324707 3.43958,-3.763981 z"
         id="path1619"
         inkscape:connector-curvature="0" />
      <path
         style="fill:#c62227;stroke-width:0.35277778"
         d="M 90.31013,333.77009 C 84.29337,305.02279 64.21946,271.34875 36.66905,243.78695 22.10436,229.21625 8.56069,218.95466 -6.39201,211.16102 c -8.79162,-4.58236 -19.50363,-8.18634 -27.30625,-9.18698 -1.76496,-0.22635 -3.20902,-0.53721 -3.20902,-0.69081 0,-0.35228 1.13048,-0.71291 7.05555,-2.2508 5.53025,-1.43541 14.89472,-3.36733 16.3438,-3.37178 2.91565,-0.009 18.76149,7.06438 27.22426,12.15248 33.35508,20.0542 61.85475,56.4662 74.01193,94.55973 0.86691,2.71639 1.74618,5.81202 1.95393,6.87917 0.45723,2.34872 1.57356,22.60604 1.40942,25.57639 l -0.11695,2.11667 z M -208.0045,321.562 c -4.68872,-0.40993 -13.74655,-1.73514 -14.81086,-2.16687 -0.82596,-0.33507 -0.72814,-0.40696 1.4053,-1.03311 11.74093,-3.44572 18.36187,-5.93369 27.10209,-10.18409 15.06737,-7.32734 27.29254,-16.18495 39.2332,-28.42603 10.20356,-10.46025 18.97952,-22.20636 29.81603,-39.90698 4.02217,-6.56993 4.60346,-7.40293 4.93472,-7.07167 0.20677,0.20678 2.10544,23.18923 3.87008,46.84545 0.29671,3.97757 0.84779,11.08374 1.22462,15.79153 0.37684,4.70775 0.60493,8.76864 0.50688,9.02416 -0.0981,0.25555 -3.22757,1.46985 -6.95448,2.69843 -31.1693,10.27526 -43.50283,13.22741 -60.39842,14.45694 -5.72038,0.41628 -21.0379,0.39988 -25.92916,-0.0279 z m -35.80695,-7.86501 c -6.48733,-2.37888 -13.53416,-5.723 -13.00891,-6.17343 0.1699,-0.14573 2.61079,-0.9489 5.42419,-1.78488 11.64445,-3.46001 25.94949,-9.10043 36.57233,-14.42029 23.47589,-11.75656 39.89927,-25.49774 55.82236,-46.70559 l 3.54499,-4.72156 11.38502,-3.6604 c 6.26176,-2.01322 11.58346,-3.72778 11.82599,-3.81013 0.93289,-0.31675 0.31217,0.81294 -3.49509,6.36092 -5.8664,8.5486 -11.37363,15.8381 -16.10027,21.3107 -4.78733,5.54285 -14.13613,14.82216 -19.122,18.97984 -18.02349,15.02968 -38.47181,26.02777 -63.2596,34.02411 -3.06924,0.99011 -5.76799,1.79226 -5.99722,1.78259 -0.22924,-0.01 -1.84554,-0.54155 -3.59179,-1.18188 z m 145.152817,-14.9401 c -0.04095,-2.60685 -7.983717,-88.99085 -8.202577,-89.20972 -0.13904,-0.13904 -4.89535,1.59107 -10.56958,3.84468 -44.13964,17.53077 -70.65161,23.76467 -98.15843,23.08052 -17.05164,-0.42411 -31.41389,-3.50872 -46.27291,-9.93812 -4.672,-2.02154 -6.05839,-2.78457 -6.30255,-3.46875 -0.15339,-0.42983 -5.10371,-39.26075 -5.10371,-40.03413 0,-0.68089 0.67624,-0.5215 4.77781,1.1261 12.03574,4.83475 23.6141,7.90162 36.33184,9.62354 6.46698,0.8756 26.11888,0.88309 32.97368,0.0126 21.58882,-2.74164 40.64494,-8.68572 77.08194,-24.04376 5.82084,-2.45346 10.77178,-4.65258 11.00209,-4.88695 0.32346,-0.32915 -0.49547,-10.58157 -3.59863,-45.05222 -2.20956,-24.544346 -3.90613,-44.723038 -3.77014,-44.841532 0.13598,-0.118498 2.19096,-0.979491 4.56662,-1.913326 2.37566,-0.933834 4.26219,-1.755073 4.19228,-1.824976 -0.0699,-0.0699 -1.81523,0.539556 -3.87851,1.354353 -2.06328,0.8148 -3.85381,1.379065 -3.97895,1.253927 -0.27006,-0.270072 -0.99899,-8.084364 -5.95671,-63.8575016 -2.06667,-23.2494914 -3.66824,-42.3611504 -3.55904,-42.4703524 0.10921,-0.109203 2.04415,0.623795 4.29989,1.628887 10.98683,4.895413 21.19927,7.865502 32.783882,9.534554 20.897331,3.010775 43.871927,1.058164 71.790278,-6.101458 15.09369,-3.870759 27.93748,-7.975498 60.85416,-19.448351 20.78011,-7.242743 35.44588,-12.176618 43.92084,-14.775897 17.13798,-5.256241 34.98017,-9.590314 45.15555,-10.968808 2.23132,-0.302284 4.93007,-0.712256 5.99722,-0.911049 2.94521,-0.548638 15.91861,-0.804708 20.10834,-0.396899 14.27212,1.389182 27.29583,5.051361 37.2389,10.47134 19.25719,10.4971 32.30108,26.932576 38.59894,48.635109 l 1.11244,3.833601 -0.13835,8.513622 c -0.0761,4.68249 -1.03767,57.408619 -2.13671,117.169177 -1.09908,59.76055 -1.9994,108.93337 -2.00067,109.27291 -0.006,1.45782 -0.61274,0.35865 -1.75602,-3.17868 -0.67353,-2.08379 -2.28396,-5.93182 -3.57876,-8.55119 -12.2132,-24.70705 -36.1213,-41.11625 -66.81061,-45.8551 -17.09395,-2.63954 -35.28063,-1.39585 -67.08108,4.58732 -4.1039,0.77214 -7.80118,1.40389 -8.21619,1.40389 -0.66202,0 -0.74722,-0.18397 -0.69444,-1.49931 0.0332,-0.82461 -0.0501,-3.24555 -0.18479,-5.37986 -0.27538,-4.36347 -0.50401,-8.45748 -0.53319,-9.54696 C 81.60352,154.3785 74.41629,145.6605 69.17599,140.82269 57.33097,129.8875 42.4229,122.02013 27.65105,118.90893 c -3.6495,-0.76865 -5.67169,-0.96102 -11.72986,-1.11583 -5.63139,-0.14391 -7.32014,-0.29168 -7.32014,-0.64052 0,-1.25711 8.82919,-5.94975 15.16944,-8.06244 6.9919,-2.32984 10.21142,-2.82422 18.52084,-2.84405 8.17083,-0.0195 10.14594,0.24273 15.90487,2.11159 6.73657,2.18612 12.79462,5.81004 17.85497,10.68079 1.68748,1.62427 3.19786,2.87307 3.35637,2.7751 0.28952,-0.17893 0.2843,-1.05165 -0.0394,-6.58932 -0.0964,-1.64923 -0.26476,-4.90361 -0.37409,-7.23194 -0.25752,-5.48517 -0.63687,-7.49337 -2.46559,-13.052782 -2.37289,-7.213586 -5.35535,-12.660514 -11.2034,-20.461111 -3.75692,-5.011265 -3.98933,-5.211879 -7.51627,-6.488078 -7.78036,-2.815265 -14.59626,-3.976666 -23.27856,-3.966573 -11.07301,0.01288 -21.31502,2.119683 -33.14222,6.817438 -21.59477,8.577428 -42.553448,25.050715 -54.78466,43.060126 -1.284809,1.89177 -2.458734,3.43959 -2.608724,3.43959 -0.149987,0 -0.355808,-0.51594 -0.45738,-1.14653 -0.231853,-1.43946 -5.50951,-55.619281 -5.755502,-59.085323 -0.09964,-1.403974 -0.372005,-2.711062 -0.605251,-2.904641 -0.29355,-0.243622 -1.989628,0.196599 -5.510177,1.430189 -2.797348,0.980179 -6.261498,2.174593 -7.698108,2.654251 -3.997025,1.334533 -20.601778,7.568836 -21.20048,7.959785 -0.748556,0.488798 -0.414027,0.37108 9.805144,-3.45035 9.857666,-3.686242 10.915586,-3.995988 11.16094,-3.267756 0.08968,0.266192 1.995942,19.772108 4.236134,43.346485 2.240188,23.57437 4.16336,43.53718 4.273709,44.3618 0.130803,0.97746 0.377581,1.49931 0.709009,1.49931 0.279608,0 3.325816,-0.86737 6.769357,-1.92749 49.763529,-15.32005 87.058109,-16.06921 112.931559,-2.26852 10.54351,5.62382 19.11026,13.5243 25.96332,23.94407 4.12478,6.27153 3.61939,3.31129 5.11718,29.9731 0.72549,12.91412 1.20629,23.69659 1.0685,23.96103 -0.15565,0.29871 -0.75735,-0.83695 -1.58874,-2.99861 -7.73479,-20.11095 -23.17976,-33.37743 -45.34249,-38.94698 -17.66921,-4.44031 -38.99602,-4.12877 -63.84251,0.9326 -12.526813,2.55178 -36.320231,9.43839 -37.132946,10.74752 -0.193245,0.31127 1.445602,18.78838 4.284239,48.30251 2.528457,26.28911 4.466068,47.92951 4.305804,48.08978 -0.160267,0.16027 -2.018989,0.68015 -4.130498,1.15535 -6.044018,1.36013 -18.128862,4.4426 -28.828192,7.35323 -5.400802,1.46921 -10.123614,2.6713 -10.495139,2.6713 -0.49802,0 -0.679496,-0.25488 -0.690731,-0.97014 z m 200.727943,-170.17906 3.37569,-3.57974 3.73073,1.99224 c 3.59365,1.91906 4.90587,2.3635 4.90587,1.66161 0,-0.18186 -0.73346,-2.41779 -1.62994,-4.96875 l -1.62993,-4.63809 1.19803,-1.29307 c 0.65892,-0.71118 2.27704,-2.4405 3.59583,-3.84293 3.38229,-3.59679 2.99949,-3.88194 -3.14442,-2.34242 -2.0381,0.5107 -3.79359,0.84059 -3.90108,0.73308 -0.10753,-0.1075 -0.81365,-1.89843 -1.56919,-3.97984 -0.75555,-2.08141 -1.44904,-3.85965 -1.54104,-3.95166 -0.60361,-0.60361 -1.22891,0.77272 -2.26152,4.97785 -0.84847,3.45514 -1.34017,4.84403 -1.76146,4.97537 -0.32145,0.10021 -2.39649,0.65617 -4.61115,1.23546 -4.10239,1.07305 -4.87384,1.43473 -4.46638,2.094 0.12629,0.20432 1.89043,1.26237 3.92038,2.3512 2.02992,1.08885 3.69076,2.05604 3.69076,2.14932 0,0.0933 -0.47625,2.05604 -1.05833,4.36168 -1.1557,4.57775 -1.27635,5.64444 -0.63846,5.64444 0.23097,0 1.93897,-1.61088 3.79561,-3.57975 z m 24.00674,-33.285524 c 1.83561,-1.843264 3.49934,-3.349671 3.69718,-3.347575 0.19787,0.0021 1.84609,0.875224 3.66268,1.940277 3.24802,1.904281 4.06954,2.212545 4.41343,1.656116 0.0953,-0.154196 -0.45096,-2.083083 -1.21391,-4.28642 -0.76292,-2.203333 -1.38716,-4.25728 -1.38716,-4.56432 0,-0.30704 1.62179,-2.185596 3.60401,-4.174571 2.51686,-2.525462 3.49229,-3.728043 3.23363,-3.986699 -0.25865,-0.258657 -1.67841,-0.08946 -4.70662,0.560895 -3.35361,0.720256 -4.3973,0.832439 -4.60579,0.495081 -0.14827,-0.239906 -0.86681,-2.201428 -1.59678,-4.358936 -0.72993,-2.157504 -1.48787,-4.129141 -1.6843,-4.381415 -0.63842,-0.81992 -1.14812,0.248563 -2.32234,4.8684 -1.60436,6.312182 -1.20643,5.795913 -5.03262,6.528798 -5.81688,1.114196 -6.06453,1.462448 -2.49961,3.515269 1.30969,0.754172 2.8006,1.658821 3.31312,2.010332 l 0.93182,0.63911 -1.18826,4.677551 c -0.65352,2.572653 -1.19193,4.875989 -1.19641,5.118524 -0.0212,1.139253 1.52217,0.158111 4.57793,-2.910417 z M -108.16839,70.77425 c 0.29104,-0.188087 0.37041,-0.341972 0.17639,-0.341972 -0.19403,0 -0.59091,0.153885 -0.88195,0.341972 -0.29104,0.188087 -0.37042,0.341972 -0.17639,0.341972 0.19403,0 0.5909,-0.153885 0.88195,-0.341972 z m 1.76388,-0.705556 c 0.29105,-0.188087 0.37042,-0.341972 0.17639,-0.341972 -0.19402,0 -0.5909,0.153885 -0.88194,0.341972 -0.29104,0.188087 -0.37042,0.341973 -0.17639,0.341973 0.19403,0 0.5909,-0.153886 0.88194,-0.341973 z m 5.20294,-2.012396 c 1.794466,-0.704698 3.203358,-1.340573 3.130872,-1.413055 -0.148209,-0.148212 -7.353482,2.67008 -7.628252,2.983735 -0.22233,0.253799 0.44457,0.02088 4.49738,-1.57068 z m 234.41505,-15.249169 3.66924,-3.503235 3.68071,2.087263 c 3.64197,2.065313 4.9154,2.498012 4.9154,1.670209 0,-0.234725 -0.66877,-2.453108 -1.48615,-4.929738 l -1.48611,-4.502965 3.48586,-3.548031 c 4.27518,-4.351405 4.22021,-4.598402 -0.83629,-3.758632 -5.26126,0.87377 -4.7177,1.175621 -6.16649,-3.424432 -1.29589,-4.114669 -1.93773,-5.200428 -2.58487,-4.372807 -0.19152,0.244926 -0.94795,2.429697 -1.68091,4.855044 -0.73297,2.425347 -1.51014,4.584725 -1.72706,4.798614 -0.21689,0.213893 -2.49781,0.755343 -5.06868,1.20323 -5.94437,1.0356 -6.01218,1.280096 -1.12261,4.048604 1.95344,1.106044 3.62486,2.201605 3.71426,2.43458 0.0894,0.232978 -0.39762,2.467462 -1.08225,4.965527 -0.68464,2.498066 -1.24482,4.753 -1.24482,5.010969 0,1.18588 1.63672,0.196776 5.02077,-3.0342 z M 15.1135,22.789134 c 1.73858,-1.936242 3.43037,-3.52044 3.75952,-3.52044 0.32915,0 2.30356,0.714375 4.38758,1.5875 3.81358,1.597748 5.096,1.903186 5.096,1.213721 0,-0.205578 -0.8931,-2.423178 -1.98467,-4.927999 l -1.98467,-4.55422 3.57217,-3.8882812 C 31.32589,5.035052 32.13622,3.746471 31.07411,3.746471 c -0.25162,0 -2.35133,0.636245 -4.66601,1.413877 -2.31469,0.7776316 -4.35466,1.3651583 -4.53329,1.30562 -0.17861,-0.059542 -0.9877,-1.608596 -1.79796,-3.442349 -2.09371,-4.738423 -2.46474,-4.626116 -3.92159,1.187034 -0.62317,2.4866208 -1.20362,4.5917094 -1.28989,4.6779777 -0.0863,0.086268 -2.2833,0.9112532 -4.8823,1.8332983 -3.04336,1.07969 -4.76293,1.871038 -4.83073,2.223106 -0.0763,0.39599 0.92848,0.96985 3.64531,2.082028 2.06283,0.844448 3.82616,1.732294 3.91853,1.972987 0.0924,0.240693 -0.31951,2.251816 -0.91527,4.469162 -0.59575,2.217346 -1.08319,4.216823 -1.08319,4.443286 0,1.147921 1.54842,0.04771 4.39578,-3.123364 z m 102.47369,-5.110826 c 2.02505,-2.229732 3.82253,-4.054059 3.99436,-4.054059 0.17181,0 1.99182,0.880798 4.04446,1.957328 2.63525,1.382095 3.84224,1.84713 4.107,1.582363 0.26476,-0.264767 -0.024,-1.487978 -0.9828,-4.162188 -2.09098,-5.8323098 -2.21121,-5.1635842 1.69556,-9.432986 1.86527,-2.038396 3.39139,-3.854806 3.39139,-4.036469 0,-0.753124 -0.86981,-0.692891 -4.65769,0.322527 -2.19195,0.587594 -4.15791,1.068592 -4.36877,1.068889 -0.21089,2.96e-4 -0.89037,-1.467902 -1.50999,-3.262659 -0.61962,-1.794757 -1.26217,-3.480981 -1.42787,-3.747163 -0.65567,-1.053225 -1.31752,0.0267 -2.69081,4.390641 l -1.43372,4.556026 -4.47122,1.236705 c -2.45917,0.680191 -4.6458,1.415626 -4.85916,1.6343028 -0.48316,0.4952224 0.60449,1.3039972 4.13812,3.0771254 1.39227,0.6986164 2.60714,1.3932288 2.69974,1.5435788 0.0926,0.150354 -0.44933,2.416493 -1.20424,5.035868 -0.75491,2.619375 -1.3745,5.119688 -1.37682,5.55625 -0.008,1.593462 1.27239,0.741846 4.91246,-3.26608 z M 49.69966,-1.545196 c 2.08279,-2.328333 3.88734,-4.23528 4.01011,-4.237662 0.12277,-0.0025 1.92404,0.590748 4.0028,1.318059 2.48013,0.867742 3.89812,1.202771 4.12436,0.974468 0.225,-0.227041 -0.20061,-1.739364 -1.22501,-4.352848 -1.82023,-4.643875 -2.15804,-3.52426 2.75788,-9.140564 4.41703,-5.046334 4.25723,-5.314851 -1.8306,-3.075996 -2.36477,0.869664 -4.50084,1.58121 -4.74682,1.58121 -0.24598,0 -1.03978,-1.49708 -1.76398,-3.326846 -1.40495,-3.549714 -2.00314,-4.395996 -2.57636,-3.644865 -0.18691,0.244926 -0.86375,2.429697 -1.50407,4.855044 -0.64033,2.425347 -1.3419,4.589336 -1.55905,4.808862 -0.21715,0.219527 -2.426,1.155785 -4.90856,2.080574 -3.4323,1.27858 -4.48772,1.816654 -4.40507,2.245808 0.069,0.358317 1.39028,1.033565 3.61891,1.849487 1.93063,0.706815 3.56535,1.450485 3.63272,1.652595 0.0674,0.20211 -0.44277,2.417879 -1.13363,4.923931 -0.69087,2.506052 -1.25613,4.818726 -1.25613,5.13927 0,1.273595 1.13792,0.401366 4.7625,-3.650527 z m 39.33472,-2.44778 c 1.84327,-2.115146 3.51074,-3.917827 3.70551,-4.005958 0.19477,-0.08813 2.07998,0.546016 4.18934,1.40921 2.60174,1.06468 3.95072,1.45396 4.19432,1.210363 0.24359,-0.243597 -0.12266,-1.720501 -1.13873,-4.592052 -0.82381,-2.328129 -1.44188,-4.386643 -1.37344,-4.574476 0.0684,-0.18783 1.6722,-2.106606 3.56397,-4.263941 1.89177,-2.157338 3.43959,-4.076591 3.43959,-4.265009 0,-0.588123 -1.10617,-0.384976 -5.03837,0.925297 -2.09275,0.697329 -4.01567,1.187027 -4.27317,1.088217 -0.25752,-0.09881 -1.06687,-1.859982 -1.79856,-3.913709 -1.86888,-5.245524 -2.16624,-5.136085 -3.91672,1.441481 l -1.37735,5.175529 -4.93889,1.644985 c -6.26166,2.085556 -6.32389,2.30692 -1.23472,4.39075 2.20768,0.903965 3.74855,1.739526 3.81406,2.068231 0.0604,0.303335 -0.37614,2.360383 -0.97014,4.571216 -1.17821,4.385155 -1.31279,5.552236 -0.63906,5.542171 0.24254,-0.0036 1.9491,-1.737162 3.79236,-3.852305 z M 50.05244,295.07033 C 38.80318,289.25087 21.98251,284.44978 6.48438,282.6348 c -13.35023,-1.56344 -23.97249,-1.01818 -40.8304,2.09579 -2.64822,0.48919 -4.933214,0.76944 -5.077768,0.62279 -0.349532,-0.35461 -7.124407,-69.83489 -6.873265,-70.48936 0.719815,-1.8758 11.671303,1.42783 21.716363,6.55098 25.63033,13.0719 53.07556,37.14314 69.06619,60.57549 5.12733,7.5135 8.97165,14.22372 8.13052,14.19179 -0.2458,-0.009 -1.39942,-0.50973 -2.56358,-1.11195 z m -310.4267,-8.1315 c -0.26467,-1.22082 -5.4858,-45.60153 -5.4858,-46.63049 0,-0.49847 0.17668,-0.90631 0.39262,-0.90631 0.21595,0 3.55356,1.02727 7.41692,2.28282 23.27242,7.56331 42.54264,9.79855 60.82019,7.0548 3.16319,-0.47485 10.93391,-2.10585 12.02156,-2.52322 2.29925,-0.88231 -3.92956,5.48677 -11.68323,11.94633 -19.34305,16.11463 -39.80635,26.1845 -58.99976,29.03343 -4.52324,0.6714 -4.27809,0.68548 -4.4825,-0.25736 z M 86.78613,279.6187 C 81.46257,263.81138 73.04134,249.11699 61.21106,234.99231 55.15433,227.76091 43.6881,216.75649 35.94133,210.74033 27.52134,204.20136 16.20309,197.43604 9.46726,194.91584 c -1.0585,-0.39603 -1.92454,-0.84844 -1.92454,-1.00535 0,-0.45771 7.07053,-0.81081 11.20069,-0.55936 20.38103,1.24081 36.73247,8.24408 49.84122,21.34681 7.84465,7.84105 14.87445,19.29676 17.09131,27.85179 0.54687,2.11059 2.77343,36.00177 2.58208,39.30357 l -0.10558,1.82234 z m -312.95256,-97.77358 c -9.65466,-0.84967 -21.40262,-3.64637 -33.31023,-7.92977 -6.20557,-2.23228 -14.56118,-5.76043 -15.25195,-6.44014 -0.46208,-0.45469 -0.87525,-3.47506 -2.0564,-15.03291 -0.81297,-7.95513 -1.77883,-16.9208 -2.14636,-19.9237 -0.36752,-3.0029 -0.53365,-5.59439 -0.36916,-5.75887 0.16448,-0.16449 5.43924,4.67368 11.72168,10.75148 15.31079,14.81206 21.96168,20.61237 30.47018,26.57336 10.69929,7.49583 20.85045,12.3388 31.37792,14.96994 2.12369,0.53078 3.91644,1.13059 3.98388,1.33293 0.13239,0.39717 -3.13733,0.95033 -8.90347,1.50626 -4.17714,0.40273 -10.61698,0.38257 -15.51609,-0.0486 z m 38.62304,-6.47928 c -22.80064,-2.82947 -43.54348,-15.22529 -70.53589,-42.15192 -8.54109,-8.52028 -22.95667,-23.72871 -23.52134,-24.81502 -0.2171,-0.41765 -0.66477,-2.98187 -0.99481,-5.69826 -0.33005,-2.71639 -0.90951,-7.14513 -1.2877,-9.841647 -0.37819,-2.696521 -0.6449,-4.940618 -0.59269,-4.986888 0.0522,-0.04627 3.69864,3.912867 8.10317,8.798084 30.09674,33.381341 48.42122,49.018251 70.13204,59.846071 8.26954,4.12426 13.7858,6.17199 22.262,8.26405 9.8298,2.42614 20.84885,3.07043 30.72479,1.79648 2.65795,-0.34286 5.03118,-0.5572 5.27384,-0.47631 1.22013,0.40671 -12.42883,5.24729 -22.76942,8.07514 -7.07482,1.93476 -9.44223,2.10254 -16.79399,1.19022 z m 24.69444,-27.38856 c -26.07443,-2.42864 -50.16359,-14.03423 -71.79027,-34.58687 -5.58815,-5.31063 -11.81806,-11.80019 -11.81806,-12.31062 0,-0.27336 0.37766,-0.32949 1.14653,-0.17041 6.90225,1.42802 18.52822,2.6732 24.95902,2.6732 17.76333,0 42.26217,-6.012677 76.30313,-18.726859 4.79695,-1.791646 8.78766,-3.191616 8.86823,-3.111042 0.34308,0.343084 6.26437,64.245711 5.97912,64.526831 -0.37275,0.36735 -6.81152,1.25756 -12.65742,1.74998 -4.99994,0.42116 -16.24831,0.39747 -20.99028,-0.0442 z M -51.018394,128.5159 c 0,-0.52165 3.172382,-4.94616 6.621304,-9.23471 5.849919,-7.27406 14.05406,-15.5388 20.75379,-20.907063 17.20484,-13.785681 36.53177,-22.29847 55.51128,-24.450644 5.35354,-0.607063 17.15574,-0.226328 21.71224,0.700426 4.5293,0.921227 10.7319,2.950923 13.38573,4.380255 1.84954,0.996146 2.27703,1.452298 3.90221,4.163942 1.00387,1.674883 2.47424,4.532383 3.26753,6.35 1.58927,3.641337 3.86324,10.753644 3.54115,11.075724 -0.11239,0.1124 -1.45263,-0.613238 -2.97825,-1.612523 -21.91217,-14.352239 -54.8853,-12.469841 -80.44652,4.592593 -7.06346,4.71495 -13.89835,10.92045 -18.89299,17.15322 l -1.73476,2.1648 -4.11927,0.76819 c -5.13811,0.9582 -14.199423,3.21763 -17.701222,4.41378 -3.11985,1.06569 -2.822222,1.01908 -2.822222,0.44201 z"
         id="path1617"
         inkscape:connector-curvature="0" />
      <path
         style="fill:#26518f;stroke-width:0.35277778"
         d="m -208.0045,321.562 c -4.68872,-0.40993 -13.74655,-1.73514 -14.81086,-2.16687 -0.82596,-0.33507 -0.72814,-0.40696 1.4053,-1.03311 11.74093,-3.44572 18.36187,-5.93369 27.10209,-10.18409 15.06737,-7.32734 27.29254,-16.18495 39.2332,-28.42603 10.20356,-10.46025 18.97952,-22.20636 29.81603,-39.90698 4.02217,-6.56993 4.60346,-7.40293 4.93472,-7.07167 0.20677,0.20678 2.10544,23.18923 3.87008,46.84545 0.29671,3.97757 0.84779,11.08374 1.22462,15.79153 0.37684,4.70775 0.60493,8.76864 0.50688,9.02416 -0.0981,0.25555 -3.22757,1.46985 -6.95448,2.69843 -31.1693,10.27526 -43.50283,13.22741 -60.39842,14.45694 -5.72038,0.41628 -21.0379,0.39988 -25.92916,-0.0279 z M 50.05244,295.07033 C 38.80318,289.25087 21.98251,284.44978 6.48438,282.6348 c -13.35023,-1.56344 -23.97249,-1.01818 -40.8304,2.09579 -2.64822,0.48919 -4.933214,0.76944 -5.077768,0.62279 -0.349532,-0.35461 -7.124407,-69.83489 -6.873265,-70.48936 0.719815,-1.8758 11.671303,1.42783 21.716363,6.55098 25.63033,13.0719 53.07556,37.14314 69.06619,60.57549 5.12733,7.5135 8.97165,14.22372 8.13052,14.19179 -0.2458,-0.009 -1.39942,-0.50973 -2.56358,-1.11195 z m -310.4267,-8.1315 c -0.26467,-1.22082 -5.4858,-45.60153 -5.4858,-46.63049 0,-0.49847 0.17668,-0.90631 0.39262,-0.90631 0.21595,0 3.55356,1.02727 7.41692,2.28282 23.27242,7.56331 42.54264,9.79855 60.82019,7.0548 3.16319,-0.47485 10.93391,-2.10585 12.02156,-2.52322 2.29925,-0.88231 -3.92956,5.48677 -11.68323,11.94633 -19.34305,16.11463 -39.80635,26.1845 -58.99976,29.03343 -4.52324,0.6714 -4.27809,0.68548 -4.4825,-0.25736 z M 86.78613,279.6187 C 81.46257,263.81138 73.04134,249.11699 61.21106,234.99231 55.15433,227.76091 43.6881,216.75649 35.94133,210.74033 27.52134,204.20136 16.20309,197.43604 9.46726,194.91584 c -1.0585,-0.39603 -1.92454,-0.84844 -1.92454,-1.00535 0,-0.45771 7.07053,-0.81081 11.20069,-0.55936 20.38103,1.24081 36.73247,8.24408 49.84122,21.34681 7.84465,7.84105 14.87445,19.29676 17.09131,27.85179 0.54687,2.11059 2.77343,36.00177 2.58208,39.30357 l -0.10558,1.82234 z m 141.95845,-58.82939 c -0.67353,-2.08377 -2.28396,-5.9318 -3.57876,-8.55117 -12.2132,-24.70705 -36.1213,-41.11625 -66.81061,-45.8551 -17.09395,-2.63954 -35.28063,-1.39585 -67.08108,4.58732 -4.1039,0.77214 -7.80118,1.40389 -8.21619,1.40389 -0.66202,0 -0.74722,-0.18397 -0.69444,-1.49931 0.0332,-0.82461 -0.0501,-3.24555 -0.18479,-5.37986 -0.27538,-4.36347 -0.50401,-8.45748 -0.53319,-9.54696 C 81.60352,154.3785 74.41629,145.6605 69.17599,140.82269 57.33097,129.8875 42.4229,122.02013 27.65105,118.90893 c -3.6495,-0.76865 -5.67169,-0.96102 -11.72986,-1.11583 -5.63139,-0.14391 -7.32014,-0.29168 -7.32014,-0.64052 0,-1.25711 8.82919,-5.94975 15.16944,-8.06244 6.9919,-2.32984 10.21142,-2.82422 18.52084,-2.84405 8.17083,-0.0195 10.14594,0.24273 15.90487,2.11159 6.73657,2.18612 12.79462,5.81004 17.85497,10.68079 1.68748,1.62427 3.19786,2.87307 3.35637,2.7751 0.28952,-0.17893 0.2843,-1.05165 -0.0394,-6.58932 -0.0964,-1.64924 -0.26476,-4.90361 -0.37409,-7.23194 -0.25752,-5.48517 -0.63687,-7.49337 -2.46559,-13.052782 -2.37289,-7.213586 -5.35535,-12.660514 -11.2034,-20.461111 -3.75692,-5.011265 -3.98933,-5.211879 -7.51627,-6.488078 -7.78036,-2.815265 -14.59626,-3.976666 -23.27856,-3.966573 -11.07301,0.01288 -21.31502,2.119683 -33.14222,6.817438 -21.59477,8.577428 -42.553448,25.050715 -54.78466,43.060126 -1.284809,1.89177 -2.458734,3.43959 -2.608724,3.43959 -0.149987,0 -0.355808,-0.51594 -0.45738,-1.14653 -0.231853,-1.43946 -5.50951,-55.619281 -5.755502,-59.085323 -0.09964,-1.403974 -0.372005,-2.711062 -0.605251,-2.904641 -0.29355,-0.243622 -1.989628,0.196599 -5.510177,1.430189 -2.797348,0.980179 -6.197339,2.154199 -7.555533,2.608936 -4.601517,1.540623 -17.588255,6.437638 -29.388173,11.081632 -6.46211,2.543236 -11.8921,4.624067 -12.06665,4.624067 -0.17456,0 -0.40159,-0.515937 -0.50451,-1.146528 -0.50324,-3.083115 -9.44805,-105.078962 -9.23396,-105.293045 0.10833,-0.108335 2.04256,0.625376 4.2983,1.630468 10.98683,4.895413 21.19927,7.865502 32.783882,9.534554 20.897331,3.010775 43.871927,1.058164 71.790278,-6.101458 15.09369,-3.870759 27.93748,-7.975498 60.85416,-19.448351 20.78011,-7.242743 35.44588,-12.176619 43.92084,-14.775897 17.13798,-5.256241 34.98017,-9.590314 45.15555,-10.968808 2.23132,-0.302284 4.93007,-0.712256 5.99722,-0.911049 2.94521,-0.548638 15.91861,-0.804708 20.10834,-0.396899 23.19556,2.257748 40.87886,9.811569 54.97406,23.483408 9.72344,9.431401 16.73949,21.410676 20.86378,35.623041 l 1.11244,3.833601 -0.13835,8.513622 c -0.0761,4.68249 -1.03767,57.408619 -2.13671,117.169171 -1.09908,59.76056 -1.9994,108.93337 -2.00067,109.27292 -0.006,1.45782 -0.61274,0.35864 -1.75602,-3.17869 z m -126.67527,-92.21148 3.37569,-3.57974 3.73073,1.99224 c 3.59365,1.91906 4.90587,2.3635 4.90587,1.66161 0,-0.18186 -0.73346,-2.41779 -1.62994,-4.96875 l -1.62993,-4.63809 1.19803,-1.29307 c 0.65892,-0.71118 2.27704,-2.4405 3.59583,-3.84293 3.38229,-3.59679 2.99949,-3.88194 -3.14442,-2.34242 -2.0381,0.5107 -3.79359,0.84059 -3.90108,0.73308 -0.10753,-0.1075 -0.81365,-1.89843 -1.56919,-3.97984 -0.75555,-2.08141 -1.44904,-3.85965 -1.54104,-3.95166 -0.60361,-0.60361 -1.22891,0.77272 -2.26152,4.97785 -0.84847,3.45514 -1.34017,4.84403 -1.76146,4.97536 -0.32145,0.10021 -2.39649,0.65617 -4.61115,1.23547 -4.10239,1.07305 -4.87384,1.43473 -4.46638,2.094 0.12629,0.20432 1.89043,1.26237 3.92038,2.3512 2.02992,1.08885 3.69076,2.05604 3.69076,2.14932 0,0.0933 -0.47625,2.05604 -1.05833,4.36168 -1.1557,4.57775 -1.27635,5.64444 -0.63846,5.64444 0.23097,0 1.93897,-1.61088 3.79561,-3.57975 z m 24.00674,-33.285524 c 1.83561,-1.843264 3.49934,-3.349671 3.69718,-3.347575 0.19787,0.0021 1.84609,0.875224 3.66268,1.940277 3.24802,1.904281 4.06954,2.212545 4.41343,1.656116 0.0953,-0.154196 -0.45096,-2.083083 -1.21391,-4.28642 -0.76292,-2.203333 -1.38716,-4.25728 -1.38716,-4.56432 0,-0.30704 1.62179,-2.185596 3.60401,-4.174571 2.51686,-2.525462 3.49229,-3.728043 3.23363,-3.986699 -0.25865,-0.258657 -1.67841,-0.08946 -4.70662,0.560895 -3.35361,0.720256 -4.3973,0.832439 -4.60579,0.495081 -0.14827,-0.239906 -0.86681,-2.201428 -1.59678,-4.358936 -0.72993,-2.157504 -1.48787,-4.129141 -1.6843,-4.381415 -0.63842,-0.81992 -1.14812,0.248563 -2.32234,4.8684 -1.60436,6.312182 -1.20643,5.795913 -5.03262,6.528798 -5.81688,1.114196 -6.06453,1.462448 -2.49961,3.515269 1.30969,0.754172 2.8006,1.658821 3.31312,2.010332 l 0.93182,0.63911 -1.18826,4.677551 c -0.65352,2.572653 -1.19193,4.875989 -1.19641,5.118524 -0.0212,1.139253 1.52217,0.158111 4.57793,-2.910417 z m 7.13743,-42.485177 3.66924,-3.503235 3.68071,2.087263 c 3.64197,2.065313 4.9154,2.498012 4.9154,1.670209 0,-0.234725 -0.66877,-2.453108 -1.48615,-4.929738 l -1.48611,-4.502965 3.48586,-3.548031 c 4.27518,-4.351405 4.22021,-4.598402 -0.83629,-3.758632 -5.26126,0.87377 -4.7177,1.175621 -6.16649,-3.424432 -1.29589,-4.114669 -1.93773,-5.200428 -2.58487,-4.372807 -0.19152,0.244926 -0.94795,2.429697 -1.68091,4.855044 -0.73297,2.425347 -1.51014,4.584725 -1.72706,4.798614 -0.21689,0.213893 -2.49781,0.755343 -5.06868,1.20323 -5.94437,1.0356 -6.01218,1.280096 -1.12261,4.048604 1.95344,1.106044 3.62486,2.201605 3.71426,2.43458 0.0894,0.232978 -0.39762,2.467462 -1.08225,4.965527 -0.68464,2.498066 -1.24482,4.753 -1.24482,5.010969 0,1.18588 1.63672,0.196776 5.02077,-3.0342 z M 15.1135,22.789134 c 1.73858,-1.936242 3.43037,-3.52044 3.75952,-3.52044 0.32915,0 2.30356,0.714375 4.38758,1.5875 3.81358,1.597748 5.096,1.903186 5.096,1.213721 0,-0.205578 -0.8931,-2.423178 -1.98467,-4.927999 l -1.98467,-4.55422 3.57217,-3.8882812 C 31.32589,5.035052 32.13622,3.746471 31.07411,3.746471 c -0.25162,0 -2.35133,0.636245 -4.66601,1.413877 -2.31469,0.7776316 -4.35466,1.3651583 -4.53329,1.30562 -0.17861,-0.059542 -0.9877,-1.608596 -1.79796,-3.442349 -2.09371,-4.738423 -2.46474,-4.626116 -3.92159,1.187034 -0.62317,2.4866208 -1.20362,4.5917094 -1.28989,4.6779777 -0.0863,0.086268 -2.2833,0.9112532 -4.8823,1.8332983 -3.04336,1.07969 -4.76293,1.871038 -4.83073,2.223106 -0.0763,0.39599 0.92848,0.96985 3.64531,2.082028 2.06283,0.844448 3.82616,1.732294 3.91853,1.972987 0.0924,0.240693 -0.31951,2.251816 -0.91527,4.469162 -0.59575,2.217346 -1.08319,4.216823 -1.08319,4.443286 0,1.147921 1.54842,0.04771 4.39578,-3.123364 z m 102.47369,-5.110826 c 2.02505,-2.229732 3.82253,-4.054059 3.99436,-4.054059 0.17181,0 1.99182,0.880798 4.04446,1.957328 2.63525,1.382095 3.84224,1.84713 4.107,1.582363 0.26476,-0.264767 -0.024,-1.487978 -0.9828,-4.162188 -2.09098,-5.8323098 -2.21121,-5.1635842 1.69556,-9.432986 1.86527,-2.038396 3.39139,-3.854806 3.39139,-4.036469 0,-0.753124 -0.86981,-0.692891 -4.65769,0.322527 -2.19195,0.587594 -4.15791,1.068592 -4.36877,1.068889 -0.21089,2.96e-4 -0.89037,-1.467902 -1.50999,-3.262659 -0.61962,-1.794757 -1.26217,-3.480981 -1.42787,-3.747163 -0.65567,-1.053225 -1.31752,0.0267 -2.69081,4.390641 l -1.43372,4.556026 -4.47122,1.236705 c -2.45917,0.680191 -4.6458,1.415626 -4.85916,1.6343028 -0.48316,0.4952224 0.60449,1.3039972 4.13812,3.0771254 1.39227,0.6986164 2.60714,1.3932288 2.69974,1.5435788 0.0926,0.150354 -0.44933,2.416493 -1.20424,5.035868 -0.75491,2.619375 -1.3745,5.119688 -1.37682,5.55625 -0.008,1.593462 1.27239,0.741846 4.91246,-3.26608 z M 49.69966,-1.545196 c 2.08279,-2.328333 3.88734,-4.23528 4.01011,-4.237662 0.12277,-0.0025 1.92404,0.590748 4.0028,1.318059 2.48013,0.867742 3.89812,1.202771 4.12436,0.974468 0.225,-0.227041 -0.20061,-1.739364 -1.22501,-4.352848 -1.82023,-4.643875 -2.15804,-3.52426 2.75788,-9.140564 4.41703,-5.046334 4.25723,-5.314851 -1.8306,-3.075996 -2.36477,0.869664 -4.50084,1.58121 -4.74682,1.58121 -0.24598,0 -1.03978,-1.49708 -1.76398,-3.326846 -1.40495,-3.549714 -2.00314,-4.395996 -2.57636,-3.644865 -0.18691,0.244926 -0.86375,2.429697 -1.50407,4.855044 -0.64033,2.425347 -1.3419,4.589336 -1.55905,4.808862 -0.21715,0.219527 -2.426,1.155785 -4.90856,2.080574 -3.4323,1.27858 -4.48772,1.816654 -4.40507,2.245808 0.069,0.358317 1.39028,1.033565 3.61891,1.849487 1.93063,0.706815 3.56535,1.450485 3.63272,1.652595 0.0674,0.20211 -0.44277,2.417879 -1.13363,4.923931 -0.69087,2.506052 -1.25613,4.818726 -1.25613,5.13927 0,1.273595 1.13792,0.401366 4.7625,-3.650527 z m 39.33472,-2.44778 c 1.84327,-2.115146 3.51074,-3.917827 3.70551,-4.005958 0.19477,-0.08813 2.07998,0.546016 4.18934,1.40921 2.60174,1.06468 3.95072,1.45396 4.19432,1.210363 0.24359,-0.243597 -0.12266,-1.720501 -1.13873,-4.592052 -0.82381,-2.328129 -1.44188,-4.386643 -1.37344,-4.574476 0.0684,-0.18783 1.6722,-2.106606 3.56397,-4.263941 1.89177,-2.157338 3.43959,-4.076591 3.43959,-4.265009 0,-0.588123 -1.10617,-0.384976 -5.03837,0.925297 -2.09275,0.697329 -4.01567,1.187027 -4.27317,1.088217 -0.25752,-0.09881 -1.06687,-1.859982 -1.79856,-3.913709 -1.86888,-5.245524 -2.16624,-5.136085 -3.91672,1.441481 l -1.37735,5.175529 -4.93889,1.644985 c -6.26166,2.085556 -6.32389,2.30692 -1.23472,4.39075 2.20768,0.903965 3.74855,1.739526 3.81406,2.068231 0.0604,0.303335 -0.37614,2.360383 -0.97014,4.571216 -1.17821,4.385155 -1.31279,5.552236 -0.63906,5.542171 0.24254,-0.0036 1.9491,-1.737162 3.79236,-3.852305 z M -226.16643,181.84512 c -9.65466,-0.84967 -21.40262,-3.64637 -33.31023,-7.92977 -6.20557,-2.23228 -14.56118,-5.76043 -15.25195,-6.44014 -0.46208,-0.45469 -0.87525,-3.47506 -2.0564,-15.03291 -0.81297,-7.95513 -1.77883,-16.9208 -2.14636,-19.9237 -0.36752,-3.0029 -0.53365,-5.59439 -0.36916,-5.75887 0.16448,-0.16449 5.43924,4.67368 11.72168,10.75148 15.31079,14.81206 21.96168,20.61237 30.47018,26.57336 10.69929,7.49583 20.85045,12.3388 31.37792,14.96994 2.12369,0.53078 3.91644,1.13059 3.98388,1.33293 0.13239,0.39717 -3.13733,0.95033 -8.90347,1.50626 -4.17714,0.40273 -10.61698,0.38257 -15.51609,-0.0486 z m 63.31748,-33.86784 c -26.07443,-2.42864 -50.16359,-14.03423 -71.79027,-34.58687 -5.58815,-5.31063 -11.81806,-11.80019 -11.81806,-12.31062 0,-0.27336 0.37766,-0.32949 1.14653,-0.17041 6.90225,1.42802 18.52822,2.6732 24.95902,2.6732 17.76333,0 42.26217,-6.012677 76.30313,-18.726859 4.79695,-1.791646 8.78766,-3.191616 8.86823,-3.111042 0.34308,0.343084 6.26437,64.245711 5.97912,64.526831 -0.37275,0.36735 -6.81152,1.25756 -12.65742,1.74998 -4.99994,0.42116 -16.24831,0.39747 -20.99028,-0.0442 z"
         id="path1615"
         inkscape:connector-curvature="0" />
      <path
         style="fill:#223c8d;stroke-width:0.35277778"
         d="m -202.88922,321.39284 c -8.70487,-0.65687 -16.6969,-1.59935 -18.16806,-2.14249 -0.31217,-0.11522 0.19417,-0.40312 1.23472,-0.70206 10.37889,-2.98147 18.81608,-6.28992 28.22222,-11.06661 16.94994,-8.60763 31.94653,-20.59982 44.50397,-35.58817 0.5524,-0.65934 1.2922,-1.5028 1.64401,-1.87436 0.82007,-0.86613 2.92743,-3.5819 5.55394,-7.1574 1.14025,-1.55222 2.37402,-3.2191 2.74173,-3.70417 1.74774,-2.30554 8.18771,-12.19683 12.40299,-19.05 1.73048,-2.8134 3.29397,-5.3534 3.47444,-5.64444 0.55598,-0.89664 0.81663,-0.17248 0.97355,2.70483 0.0829,1.51978 0.22949,3.71573 0.32577,4.87989 0.0963,1.16417 0.25142,3.1089 0.34473,4.32162 0.0933,1.21273 0.24904,3.23683 0.34606,4.49801 0.097,1.26118 0.25379,3.2852 0.34841,4.49782 0.0946,1.21263 0.24828,3.23665 0.34148,4.49783 0.0932,1.26118 0.25612,3.32493 0.36206,4.58611 0.10594,1.26118 0.26113,3.40431 0.34487,4.7625 0.0837,1.3582 0.71839,9.48154 1.41032,18.05189 0.69193,8.57035 1.25806,15.96245 1.25806,16.42685 0,0.79572 -0.61569,1.04443 -10.67153,4.3108 -32.93176,10.697 -44.7331,13.07737 -66.41041,13.39533 -4.8507,0.0711 -9.6132,0.0694 -10.58333,-0.004 z M 48.75386,293.89625 c -5.67406,-2.91289 -16.87806,-6.81214 -25.15976,-8.75619 -12.38675,-2.90763 -21.68716,-3.91552 -33.69027,-3.65097 -8.86734,0.19544 -12.32575,0.57326 -23.10695,2.52444 -6.150765,1.11316 -5.986642,1.11517 -6.044223,-0.0733 -0.05436,-1.12197 -0.344113,-4.34671 -0.641883,-7.14375 -0.634647,-5.96139 -0.910879,-9.0117 -1.404718,-15.5117 -0.139605,-1.83748 -0.340844,-3.48167 -0.447203,-3.65376 -0.106355,-0.17209 -0.258339,-1.28807 -0.337735,-2.47997 -0.0794,-1.19188 -0.195657,-2.80207 -0.258357,-3.57818 -0.0627,-0.77611 -0.228212,-2.9145 -0.367816,-4.75198 -0.139605,-1.83748 -0.340844,-3.48167 -0.447203,-3.65376 -0.106355,-0.17209 -0.258339,-1.28807 -0.337735,-2.47996 -0.0794,-1.19189 -0.195658,-2.80208 -0.258357,-3.57819 -0.0627,-0.77611 -0.228212,-2.9145 -0.367816,-4.75198 -0.139605,-1.83748 -0.340844,-3.48167 -0.447203,-3.65376 -0.106355,-0.17209 -0.258339,-1.28807 -0.337735,-2.47996 -0.0794,-1.19189 -0.195114,-2.80208 -0.257147,-3.57819 -0.06203,-0.77611 -0.224254,-2.82372 -0.360493,-4.55024 l -0.247713,-3.13914 2.112362,0.22079 c 4.557879,0.47639 11.029975,2.78132 18.564865,6.61158 6.74951,3.43102 10.89755,5.97207 21.87222,13.39873 1.76129,1.19187 4.579,3.32326 6.84193,5.1754 0.65861,0.53906 2.00799,1.5917 2.99861,2.3392 7.94938,5.99843 21.26189,18.97472 27.9596,27.25346 0.61119,0.75546 2.1656,2.64356 3.45425,4.19578 3.76216,4.53164 13.60256,19.4673 13.60256,20.64583 0,0.51731 -0.31824,0.41804 -2.88608,-0.90022 z m -308.6167,-6.63762 c 0,-0.27753 -5.25473,-44.41636 -5.47456,-45.98544 l -0.20739,-1.48022 5.04584,1.70515 c 4.52283,1.52843 7.62406,2.48595 13.15973,4.06313 5.34033,1.52154 15.04662,3.48597 19.43542,3.93349 1.14621,0.11688 2.63964,0.27246 3.31874,0.34574 12.09179,1.30481 23.93053,0.68548 34.46139,-1.80281 2.06013,-0.48678 3.80681,-0.82393 3.88151,-0.74922 0.34994,0.34994 -10.02512,10.0076 -12.72714,11.8471 -0.40971,0.27892 -1.85618,1.40908 -3.21437,2.51146 -2.61079,2.11904 -4.37853,3.38304 -9.525,6.8107 -5.77068,3.8434 -8.2866,5.30692 -14.18683,8.25254 -10.62094,5.30236 -19.58315,8.22731 -30.0058,9.79283 -1.79872,0.27016 -3.42591,0.58734 -3.61597,0.70478 -0.19006,0.11748 -0.34557,0.1403 -0.34557,0.0508 z m 347.12458,-8.19207 c -0.18919,-0.4977 -0.34402,-0.99076 -0.34402,-1.09569 0,-0.10493 -0.9023,-2.43616 -2.00512,-5.18051 -3.92374,-9.76429 -9.91549,-20.62126 -15.70062,-28.44944 -0.93204,-1.26118 -2.2111,-2.99187 -2.84236,-3.84598 -1.40307,-1.89838 -6.28047,-7.81677 -8.00207,-9.70996 -2.54661,-2.80043 -11.56849,-11.72503 -13.75627,-13.60795 -8.12037,-6.9888 -9.66864,-8.18848 -16.25468,-12.59492 -6.06727,-4.05936 -14.53264,-8.75409 -17.81527,-9.88 l -1.05834,-0.36299 1.60055,-0.2515 c 1.4277,-0.22434 10.53802,0.008 13.74529,0.35097 5.43067,0.58026 13.92555,2.69768 19.40277,4.83632 2.3319,0.91051 10.17217,4.88997 11.54512,5.85991 0.53817,0.3802 1.6135,1.10671 2.38961,1.61447 2.26938,1.48469 3.70487,2.57106 5.97884,4.52472 4.57831,3.93344 8.53599,8.2808 11.95758,13.13496 4.13868,5.87156 7.9575,13.8548 9.19695,19.22639 0.32046,1.3887 0.88445,8.55402 1.43009,18.16806 0.49555,8.73125 0.94679,16.39094 1.00277,17.02153 0.1227,1.38186 -0.0113,1.45055 -0.47082,0.24161 z m -308.07217,-97.20549 c -0.3493,-0.20323 -1.77805,-0.43681 -3.175,-0.51908 -11.02739,-0.64941 -23.69431,-3.7028 -39.05241,-9.41367 -4.39516,-1.63433 -6.11585,-2.3414 -10.1252,-4.16068 -1.75837,-0.79788 -1.53231,0.18339 -2.75839,-11.97395 -0.49898,-4.9477 -1.38316,-13.26186 -1.96485,-18.4759 -0.58169,-5.21404 -0.98929,-9.5484 -0.90578,-9.63191 0.0835,-0.0835 1.40761,1.08691 2.94246,2.60091 10.66919,10.52431 19.71573,19.16301 23.20149,22.15551 1.13005,0.97014 2.2471,1.94987 2.48234,2.17717 0.23524,0.22731 2.05466,1.73543 4.04317,3.35139 13.6379,11.08287 27.06432,18.38693 39.47898,21.47682 2.54605,0.63369 3.48205,1.0291 2.49028,1.052 -0.27488,0.006 -1.61102,0.16782 -2.96922,0.35882 -1.35819,0.191 -3.62045,0.41838 -5.02724,0.5053 -1.40679,0.0869 -2.8648,0.32232 -3.24001,0.52312 -0.88064,0.47131 -4.59658,0.45358 -5.42062,-0.0258 z m 303.17707,-11.3389 c 0.0265,-1.01865 -0.041,-3.28084 -0.14983,-5.02709 -0.10883,-1.74625 -0.28494,-4.88687 -0.39137,-6.97916 -0.21703,-4.26712 -0.41395,-4.79227 -3.02556,-8.06813 -4.26876,-5.35444 -6.76173,-8.03321 -10.46195,-11.2416 -11.54021,-10.00624 -23.86167,-16.64311 -37.2809,-20.0811 -6.37121,-1.6323 -10.07346,-2.10153 -16.45876,-2.086 -2.61937,0.006 -4.91763,-0.002 -5.10723,-0.0197 -0.59848,-0.0543 3.38577,-2.53322 6.87112,-4.27511 7.94118,-3.96881 17.02565,-6.03298 26.45833,-6.01186 5.89276,0.0132 6.39467,0.0621 11.02601,1.07536 8.71805,1.90726 15.89602,5.81181 22.55554,12.26939 1.34938,1.30846 2.64023,2.37901 2.86858,2.37901 0.44369,0 0.46024,-1.43492 0.0894,-7.76111 -0.1137,-1.94027 -0.26959,-5.11527 -0.34639,-7.05555 -0.18542,-4.68414 -0.68026,-7.21284 -2.48521,-12.700002 C 73.86473,86.841991 69.83731,79.894724 62.69961,71.08508 61.13399,69.152722 60.3925,68.564408 58.39952,67.67327 55.9904,66.596067 49.80343,64.833325 45.81907,64.088949 c -1.98164,-0.370222 -8.33982,-0.854251 -11.1125,-0.845961 -2.4488,0.0073 -9.97092,0.491628 -10.24247,0.659455 -0.1528,0.09443 -1.0028,0.24505 -1.88891,0.334712 -4.81143,0.486854 -15.43512,3.581608 -22.97,6.691316 -5.30044,2.187536 -14.9036,7.295575 -19.93721,10.604846 -11.23128,7.383829 -20.720157,15.779461 -28.3095,25.047873 -1.638262,2.0007 -5.518256,7.24251 -6.139967,8.29498 -0.342318,0.57949 -0.746915,1.05362 -0.899111,1.05362 -0.291704,0 -0.323783,-0.14395 -0.471639,-2.11666 -0.05087,-0.67909 -0.189955,-2.26659 -0.309045,-3.52777 -0.119091,-1.26118 -0.280448,-3.00743 -0.358574,-3.88055 -0.07812,-0.87313 -0.236545,-2.46063 -0.352041,-3.52778 -0.356683,-3.295567 -0.603031,-5.839374 -1.05907,-10.936113 -0.07812,-0.873125 -0.236545,-2.460625 -0.352041,-3.527778 -0.356683,-3.295565 -0.603031,-5.839372 -1.059071,-10.936111 -0.07812,-0.873125 -0.236544,-2.460625 -0.35204,-3.527778 -0.279957,-2.586662 -0.451824,-4.302774 -0.706593,-7.055556 -0.116723,-1.26118 -0.277234,-2.928055 -0.35669,-3.704166 -0.07946,-0.776111 -0.227139,-2.442987 -0.328189,-3.704167 -0.368378,-4.597732 -0.596822,-5.644445 -1.2319,-5.644445 -0.328228,0 -2.893021,0.804567 -5.699534,1.787921 -2.806517,0.983357 -6.214008,2.159977 -7.572202,2.614714 -4.601517,1.540623 -17.588255,6.437638 -29.388173,11.081632 -6.46211,2.543236 -11.8808,4.624067 -12.04154,4.624067 -0.16074,0 -0.3893,-0.992187 -0.5079,-2.204861 -0.35759,-3.656203 -1.33751,-19.37269 -1.21519,-19.489727 0.0626,-0.05994 3.92391,-1.570818 8.58058,-3.357499 40.563226,-15.563427 63.752314,-22.425269 85.90139,-25.41892 9.99038,-1.350293 34.46192,-1.282154 35.32207,0.09835 0.12138,0.194807 0.14812,0.892722 0.0594,1.550924 -0.134,0.994329 -0.0488,1.196731 0.50386,1.196731 0.36582,0 1.18866,-0.540145 1.82853,-1.200323 1.03471,-1.067547 1.32528,-1.182627 2.62684,-1.040352 5.62941,0.615361 18.84734,4.622518 25.93389,7.862136 30.14206,13.779462 50.62412,39.565789 56.32918,70.916771 0.47812,2.62738 1.07759,6.32305 1.33216,8.2126 l 0.46288,3.43556 -1.43345,0.52245 c -0.78838,0.28736 -2.36883,0.75624 -3.51208,1.04197 -2.21223,0.55291 -2.90251,0.97947 -2.53837,1.56864 0.12382,0.20034 1.74078,1.18375 3.59322,2.18534 1.85247,1.00159 3.46233,2.06666 3.57751,2.36682 0.11519,0.30016 -0.16164,2.1484 -0.6152,4.10721 -1.46971,6.34727 -1.34783,6.95906 0.94382,4.73791 0.84229,-0.81638 1.19496,-0.98237 1.31166,-0.61736 0.19258,0.60242 2.21636,37.7173 2.05662,37.7173 -0.0616,0 -4.52829,0.9525 -9.92596,2.11666 -5.39768,1.16417 -10.07587,2.11667 -10.39598,2.11667 -0.47304,0 -0.57301,-0.3468 -0.53392,-1.85208 z m -240.07109,-22.54128 c -0.37199,-0.22118 -1.72136,-0.448 -2.99861,-0.50404 -1.27725,-0.056 -2.8779,-0.18936 -3.557,-0.29626 -0.6791,-0.1069 -2.98097,-0.44705 -5.11528,-0.75588 -11.67795,-1.68976 -26.17722,-6.45477 -34.84207,-11.45043 -1.34088,-0.77307 -2.50829,-1.40559 -2.59425,-1.40559 -0.27724,0 -9.05668,-5.59919 -11.4234,-7.2854 -1.26118,-0.89855 -3.56305,-2.65363 -5.11528,-3.90019 -2.96409,-2.38038 -3.39723,-2.73743 -6.74286,-5.55837 -2.56559,-2.16322 -15.42541,-15.00396 -15.22598,-15.20339 0.0797,-0.0797 1.48346,0.0906 3.1194,0.37842 8.57652,1.50913 11.3742,1.73439 21.67167,1.74499 11.52248,0.0119 13.96758,-0.24715 25.4,-2.69062 15.13524,-3.234887 31.73089,-8.363613 52.96497,-16.368324 3.40023,-1.281801 6.24348,-2.269304 6.31834,-2.194444 0.14695,0.146953 0.8317,5.450325 1.03789,8.038444 0.0696,0.873125 0.21751,2.460625 0.32879,3.527778 0.11128,1.067152 0.27553,2.734028 0.36501,3.704166 0.0895,0.970139 0.24823,2.63701 0.35278,3.70417 0.10455,1.06715 0.27165,2.8134 0.37132,3.88055 0.0997,1.06716 0.26135,2.73403 0.35926,3.70417 0.29337,2.90657 0.41986,4.41897 0.66386,7.9375 0.12783,1.84326 0.33384,3.66889 0.45781,4.05694 0.12397,0.38806 0.26399,1.49931 0.31116,2.46945 0.0472,0.97014 0.1781,2.63701 0.29095,3.70416 0.11285,1.06716 0.27838,2.73403 0.36786,3.70417 0.20844,2.25999 0.48927,5.12552 0.74331,7.58472 0.11024,1.06716 0.19078,2.44786 0.17898,3.06824 -0.0118,0.62038 0.14059,1.55416 0.33864,2.07507 0.53979,1.41975 0.13821,2.15504 -1.3456,2.46379 -0.72099,0.15002 -1.40455,0.25452 -1.51903,0.23221 -0.11447,-0.0223 -1.22572,0.11743 -2.46944,0.31054 -2.40645,0.37364 -4.25451,0.55312 -8.31747,0.80777 -1.39061,0.0872 -2.87345,0.34314 -3.2952,0.56885 -0.58154,0.31123 -1.00505,0.31172 -1.75277,0.002 -1.00524,-0.41638 -6.58487,-0.33661 -7.94587,0.1136 -0.38806,0.12836 -1.00991,0.0524 -1.38189,-0.16876 z"
         id="path1613"
         inkscape:connector-curvature="0" />
      <path
         style="fill:#204478;stroke-width:0.35277778"
         d="m -219.38945,181.99742 c 0.62626,-0.0779 1.73751,-0.0792 2.46944,-0.003 0.73193,0.0764 0.21954,0.14013 -1.13866,0.14169 -1.35819,0.001 -1.95705,-0.0609 -1.33078,-0.13885 z M 82.36886,170.52217 c 0.0275,-1.01865 -0.0453,-3.36021 -0.16203,-5.20348 -0.11677,-1.84326 -0.28925,-4.90057 -0.3833,-6.79401 -0.0941,-1.89344 -0.3345,-4.03657 -0.53431,-4.7625 -0.4535,-1.64734 -1.82115,-26.4034 -1.74901,-31.65876 0.0293,-2.13431 -0.0457,-5.46806 -0.16682,-7.40834 -0.12104,-1.94027 -0.28293,-5.11527 -0.35973,-7.05555 C 78.82824,102.95539 78.3334,100.42669 76.52845,94.939528 74.15947,87.737845 71.1973,82.324166 65.33293,74.478417 62.58342,70.79995 62.32655,70.525207 57.03942,65.607964 42.43137,52.021892 26.06465,44.828778 5.33564,42.88434 c -5.75333,-0.539679 -19.05615,-0.255591 -24.95681,0.532963 -9.62463,1.286221 -20.902911,3.960671 -35.180117,8.342362 -3.729827,1.14469 -7.148586,2.081251 -7.597245,2.081251 -0.448656,0 -3.11198,0.804567 -5.918493,1.787921 -2.806517,0.983357 -6.214008,2.159977 -7.572202,2.614714 -4.601517,1.540623 -17.588255,6.437638 -29.388173,11.081632 -6.46211,2.543236 -11.8808,4.624067 -12.04154,4.624067 -0.16074,0 -0.3893,-0.992187 -0.5079,-2.204861 -0.35759,-3.656203 -1.33751,-19.37269 -1.21519,-19.489727 0.0626,-0.05994 3.92391,-1.570818 8.58058,-3.357499 40.563226,-15.563427 63.752314,-22.425269 85.90139,-25.41892 9.99038,-1.350293 34.46192,-1.282154 35.32207,0.09835 0.12138,0.194807 0.14812,0.892722 0.0594,1.550924 -0.134,0.994329 -0.0488,1.196731 0.50386,1.196731 0.36582,0 1.18866,-0.540145 1.82853,-1.200323 1.03471,-1.067547 1.32528,-1.182627 2.62684,-1.040352 5.62941,0.615361 18.84734,4.622518 25.93389,7.862136 30.14206,13.779462 50.62412,39.565789 56.32918,70.916771 0.47812,2.62738 1.07759,6.32305 1.33216,8.2126 l 0.46288,3.43556 -1.43345,0.52245 c -0.78838,0.28736 -2.36883,0.75624 -3.51208,1.04197 -2.21223,0.55291 -2.90251,0.97947 -2.53837,1.56864 0.12382,0.20034 1.74078,1.18375 3.59322,2.18534 1.85247,1.00159 3.46233,2.06666 3.57751,2.36682 0.11519,0.30016 -0.16164,2.1484 -0.6152,4.10721 -1.46971,6.34727 -1.34783,6.95906 0.94382,4.73791 0.84229,-0.81638 1.19496,-0.98237 1.31166,-0.61736 0.19258,0.60242 2.21636,37.7173 2.05662,37.7173 -0.0616,0 -4.52829,0.9525 -9.92596,2.11666 -5.39768,1.16417 -10.07587,2.11667 -10.39598,2.11667 -0.47332,0 -0.57262,-0.3459 -0.5317,-1.85208 z m -239.28673,-22.3778 c 0.25466,-0.1019 0.55893,-0.0894 0.67616,0.0278 0.11722,0.11722 -0.0911,0.2006 -0.46302,0.18528 -0.41097,-0.0169 -0.49456,-0.10052 -0.21314,-0.21313 z m 9.17222,0 c 0.25466,-0.1019 0.55893,-0.0894 0.67616,0.0278 0.11722,0.11722 -0.0911,0.2006 -0.46302,0.18528 -0.41097,-0.0169 -0.49456,-0.10052 -0.21314,-0.21313 z"
         id="path1611"
         inkscape:connector-curvature="0" />
      <path
         style="fill:#1b3a67;stroke-width:0.35277778"
         d="m 82.68569,172.02228 c -0.27806,-0.17185 -0.33359,-0.56102 -0.15741,-1.10329 0.34364,-1.05768 0.23989,-3.33056 -0.21685,-4.75122 -0.2025,-0.62987 -0.22518,-1.43074 -0.0537,-1.89433 0.16538,-0.44706 0.15127,-1.68372 -0.0318,-2.78935 -0.1809,-1.09243 -0.30088,-2.9072 -0.26659,-4.03283 0.0342,-1.12563 -0.10001,-2.55438 -0.29838,-3.175 -0.48701,-1.52374 -1.79232,-25.52502 -1.7593,-32.34923 0.0155,-3.18372 -0.13473,-5.88299 -0.35934,-6.46129 -0.24998,-0.64366 -0.26811,-1.21304 -0.0515,-1.61775 0.33058,-0.61766 -0.0401,-4.56537 -0.49827,-5.30669 -0.12167,-0.19691 -0.0544,-0.66971 0.14944,-1.05065 0.39726,-0.74234 -0.0558,-5.22744 -0.66209,-6.5539 -0.17738,-0.38805 -0.96344,-2.769305 -1.74678,-5.291666 -1.51233,-4.869671 -3.93824,-10.185372 -6.34404,-13.901223 -0.80462,-1.242755 -1.46294,-2.393117 -1.46294,-2.556362 0,-0.36207 -3.06926,-4.701251 -5.20241,-7.354916 C 61.59093,69.179345 53.94634,62.115351 49.9042,59.062617 37.72097,49.861505 22.70078,44.238309 5.82974,42.562201 c -5.26642,-0.523208 -16.36716,-0.439589 -22.07676,0.1663 -11.32324,1.201589 -24.535745,4.241878 -40.520992,9.32416 -2.48335,0.789513 -4.920971,1.435478 -5.41704,1.435478 -0.84999,0 -7.033337,2.033548 -12.116685,3.984875 -1.261181,0.484124 -6.103056,2.308003 -10.759722,4.053064 -4.656667,1.745061 -13.753846,5.254163 -20.215951,7.798005 -6.46211,2.543842 -11.89929,4.625167 -12.08264,4.625167 -0.18335,0 -0.33335,-0.92855 -0.33335,-2.06344 0,-1.134893 -0.1,-3.246395 -0.22222,-4.692226 l -0.22221,-2.628784 9.48263,-3.645789 c 40.386378,-15.527362 63.100723,-22.426941 83.61021,-25.396956 27.88497,-4.038071 53.65165,0.794932 73.5802,13.801281 18.80689,12.2743 31.27223,29.540158 36.61311,50.713084 2.01066,7.97094 3.13535,15.84702 4.05779,28.417 0.66884,9.11379 2.29736,37.42229 2.29758,39.93848 1.7e-4,2.07452 0.49685,1.76414 -4.93875,3.08628 -3.41267,0.83008 -3.41581,0.83052 -3.87925,0.5441 z"
         id="path1609"
         inkscape:connector-curvature="0" />
    </g>
  </g>
</svg>
