<?xml version="1.0" encoding="UTF-8" standalone="no"?>
<!-- Created with Inkscape (http://www.inkscape.org/) -->

<svg
   xmlns:dc="http://purl.org/dc/elements/1.1/"
   xmlns:cc="http://creativecommons.org/ns#"
   xmlns:rdf="http://www.w3.org/1999/02/22-rdf-syntax-ns#"
   xmlns:svg="http://www.w3.org/2000/svg"
   xmlns="http://www.w3.org/2000/svg"
   xmlns:sodipodi="http://sodipodi.sourceforge.net/DTD/sodipodi-0.dtd"
   xmlns:inkscape="http://www.inkscape.org/namespaces/inkscape"
   width="194.13661mm"
   height="156.43138mm"
   viewBox="0 0 194.13661 156.43138"
   version="1.1"
   id="svg8"
   inkscape:version="0.92.3 (2405546, 2018-03-11)"
   sodipodi:docname="vegan.svg">
  <defs
     id="defs2" />
  <sodipodi:namedview
     id="base"
     pagecolor="#ffffff"
     bordercolor="#666666"
     borderopacity="1.0"
     inkscape:pageopacity="0.0"
     inkscape:pageshadow="2"
     inkscape:zoom="0.64"
     inkscape:cx="-98.312952"
     inkscape:cy="294.2093"
     inkscape:document-units="mm"
     inkscape:current-layer="layer1"
     showgrid="false"
     fit-margin-top="0"
     fit-margin-left="0"
     fit-margin-right="0"
     fit-margin-bottom="0"
     inkscape:window-width="1920"
     inkscape:window-height="1057"
     inkscape:window-x="-8"
     inkscape:window-y="-8"
     inkscape:window-maximized="1" />
  <metadata
     id="metadata5">
    <rdf:RDF>
      <cc:Work
         rdf:about="">
        <dc:format>image/svg+xml</dc:format>
        <dc:type
           rdf:resource="http://purl.org/dc/dcmitype/StillImage" />
        <dc:title></dc:title>
      </cc:Work>
    </rdf:RDF>
  </metadata>
  <g
     inkscape:label="Layer 1"
     inkscape:groupmode="layer"
     id="layer1"
     transform="translate(-7.9316937,-70.284309)">
    <path
       style="fill:#008777;fill-opacity:1;stroke-width:0.26458335"
       d="m 121.96174,226.24445 c -5.28619,-1.11563 -9.39173,-4.3704 -10.83544,-8.59007 -1.08989,-3.18554 -0.49121,-7.60983 1.4053,-10.38522 1.04553,-1.53004 3.74993,-3.66001 5.13572,-4.04486 3.33861,-0.92716 8.02603,0.59116 9.88901,3.20319 1.39889,1.96135 0.39038,5.06569 -1.86526,5.7415 -1.418,0.42484 -1.98681,0.22922 -3.54665,-1.21972 -1.20769,-1.12183 -1.34686,-1.18092 -2.48034,-1.05317 -1.66332,0.18749 -2.99122,1.50533 -3.17692,3.15286 -0.26243,2.32822 1.6032,5.091 4.46305,6.60925 0.94045,0.49927 1.56285,0.61151 3.4053,0.61411 2.02643,0.003 2.43681,-0.0866 4.05622,-0.8838 5.95481,-2.93154 7.57137,-8.88123 3.38944,-12.47468 -1.86366,-1.6014 -5.05172,-3.04734 -9.03872,-4.09949 -6.40141,-1.6893 -9.2941,-3.59847 -11.03322,-7.28191 -1.50136,-3.17987 -1.74592,-5.16032 -0.99727,-8.07584 0.65644,-2.5564 1.67512,-4.33738 3.54452,-6.19697 3.87602,-3.85569 9.12914,-5.25688 15.48027,-4.12913 2.32257,0.41241 2.77367,0.34392 2.79123,-0.42379 0.002,-0.0974 0.60965,-0.83974 1.34982,-1.6496 1.9312,-2.11304 2.61187,-2.24802 6.68871,-1.32636 2.81414,0.63619 3.36837,0.68787 4.602,0.42911 0.77141,-0.1618 1.76297,-0.55083 2.20348,-0.8645 0.44051,-0.31367 0.87727,-0.49396 0.97059,-0.40065 0.33331,0.33332 -0.50865,2.6672 -1.48245,4.10926 -1.04316,1.54477 -2.7205,2.65906 -3.99926,2.65679 -0.36935,-6.6e-4 -1.80264,-0.53591 -3.18509,-1.18944 -1.38244,-0.65353 -2.78143,-1.18877 -3.10885,-1.18943 -1.10655,-0.002 -2.02982,1.43573 -1.45116,2.26011 0.10691,0.15231 0.92615,0.83435 1.82053,1.51565 4.34572,3.31039 5.92829,7.22778 4.63717,11.47851 -0.88631,2.918 -2.74283,5.23859 -5.84217,7.30253 -1.25496,0.83571 -1.85447,1.86892 -1.45338,2.50478 0.14412,0.22849 1.0439,0.66877 1.99951,0.9784 2.93527,0.95108 4.77052,2.84033 5.65657,5.823 1.06893,3.59825 -0.37713,7.99049 -3.82719,11.62467 -2.83149,2.98259 -6.00316,4.84663 -9.49715,5.58161 -2.43938,0.51314 -3.83688,0.49078 -6.66792,-0.1067 z m 5.69475,-27.08183 c 0.64818,-0.36709 1.31248,-1.05677 1.71605,-1.78158 0.62366,-1.12013 0.66368,-1.44531 0.75705,-6.15253 0.117,-5.89781 -0.0177,-7.04822 -0.95607,-8.16337 -0.83166,-0.98836 -2.49811,-1.80179 -3.70789,-1.80988 -1.09041,-0.007 -3.27221,1.08024 -3.98493,1.98633 -1.05894,1.34622 -1.22927,2.40721 -1.23056,7.66515 -0.001,4.8343 0.0241,5.07782 0.66023,6.35 0.50632,1.01265 0.93834,1.46254 1.842,1.91823 1.5742,0.79383 3.48916,0.789 4.90412,-0.0124 z m -32.341215,9.46747 c -3.95474,-0.8592 -7.970594,-4.15768 -9.842858,-8.08459 -1.576302,-3.30616 -1.986761,-5.13029 -1.990264,-8.84501 -0.0035,-3.73694 0.416846,-5.43858 2.013577,-8.15088 3.682992,-6.25612 10.07644,-8.56438 16.62922,-6.00373 1.83199,0.7159 2.51876,1.1544 3.70417,2.36515 2.58946,2.64482 4.12485,6.6464 3.90612,10.18023 -0.0638,1.0306 -0.25145,2.20124 -0.41701,2.60142 l -0.30102,0.7276 h -8.64454 -8.644539 l 0.169055,2.19938 c 0.314942,4.09727 1.284754,6.01343 3.650208,7.2121 2.83037,1.43425 4.817156,1.07091 7.823156,-1.43071 2.99553,-2.49291 4.27622,-2.95666 5.23608,-1.89602 0.44311,0.48962 0.44845,0.60444 0.0726,1.56114 -0.61476,1.56503 -2.2463,3.88966 -3.47336,4.94889 -1.50432,1.29856 -3.72752,2.38353 -5.589292,2.7277 -1.893962,0.35012 -2.209248,0.34186 -4.301353,-0.11267 z m 5.962705,-21.66298 c 0.0664,-1.53084 -0.0323,-2.05058 -0.61584,-3.24335 -0.38221,-0.7812 -1.082586,-1.71605 -1.556388,-2.07744 -3.156374,-2.40748 -6.455773,0.2541 -6.956042,5.61135 l -0.156649,1.67753 4.602922,-0.0726 4.602927,-0.0726 z m 45.10807,21.43172 c -3.83862,-1.25668 -6.22529,-4.18759 -6.2722,-7.70251 -0.0435,-3.26027 1.6599,-4.89424 8.25862,-7.92188 5.73983,-2.63357 7.73234,-3.95573 8.6761,-5.75716 1.00745,-1.92303 -0.19841,-4.69983 -2.46148,-5.66813 -1.1668,-0.49924 -2.03025,-0.4572 -3.23517,0.1575 -2.18152,1.11293 -2.60421,2.55194 -1.46709,4.99459 0.36238,0.77844 0.65887,1.70708 0.65887,2.06366 0,1.75805 -1.59277,3.0033 -3.84143,3.0033 -1.09058,0 -1.37375,-0.12584 -2.24606,-0.99815 -3.39018,-3.39019 -1.12371,-9.72352 4.19136,-11.71214 5.08426,-1.90227 11.70396,-0.98982 14.6882,2.02459 2.03881,2.05942 2.12882,2.45411 1.86242,8.16655 -0.12908,2.76798 -0.2347,6.87816 -0.2347,9.13373 0,3.63067 0.061,4.20482 0.5316,5.00585 0.29237,0.49764 0.86536,1.01606 1.27331,1.15204 0.86717,0.28906 2.82096,0.0502 3.46971,-0.42416 0.67732,-0.49527 0.93788,-3.37263 1.01109,-11.16517 l 0.0643,-6.84394 -0.85144,-0.54304 c -0.46829,-0.29867 -1.2422,-0.78274 -1.71979,-1.0757 -0.70081,-0.4299 -0.88452,-0.72891 -0.95216,-1.54978 -0.12888,-1.56397 1.41265,-2.89205 5.03017,-4.3337 4.53805,-1.8085 6.466,-1.5035 6.75594,1.06877 0.0773,0.68548 0.1976,1.24633 0.26741,1.24633 0.0698,0 0.77319,-0.59064 1.56305,-1.31254 2.0012,-1.82898 3.67787,-2.346 6.20347,-1.91291 1.01975,0.17487 2.32116,0.55622 2.89201,0.84745 1.24987,0.63764 2.72981,2.07233 3.34434,3.24209 0.64973,1.23676 0.81121,5.6023 0.52935,14.31079 -0.27116,8.37814 -0.38566,7.87412 1.98587,8.74217 1.31316,0.48065 1.80699,1.25826 1.80699,2.84535 v 0.75427 h -7.01146 -7.01146 v -1.33522 c 0,-1.22673 0.0679,-1.37185 0.83519,-1.78594 1.80127,-0.97207 1.70759,-0.51876 1.91077,-9.24569 0.20682,-8.88278 0.097,-9.87314 -1.23987,-11.18016 -0.93574,-0.91486 -2.01268,-1.03229 -3.55542,-0.38769 -2.50664,1.04734 -3.0315,2.28505 -3.24946,7.66282 -0.0944,2.32834 -0.16113,5.73911 -0.14837,7.57949 0.0268,3.86631 0.16355,4.15556 2.29993,4.86515 1.46326,0.48602 2.35348,1.43861 2.35348,2.51836 0,1.52262 0.63357,1.44431 -11.3487,1.40272 l -11.07835,-0.0385 -1.58763,-0.87949 -1.58763,-0.87949 -3.42472,0.98975 c -3.96251,1.14516 -6.32119,1.40534 -7.93895,0.87572 z m 8.52263,-6.57019 c 1.26832,-1.40091 1.92073,-3.30553 2.17624,-6.35323 l 0.15898,-1.8963 -0.73995,0.58205 c -0.40697,0.32012 -0.89236,0.58204 -1.07864,0.58204 -0.45684,0 -4.27344,2.03321 -5.34052,2.84504 -1.69639,1.29061 -2.29387,2.93311 -1.55311,4.26959 0.5841,1.05384 1.43559,1.3707 3.44055,1.28029 1.79762,-0.081 1.84233,-0.10099 2.93645,-1.30948 z m -86.121235,5.67281 c 0,-1.10027 -0.973566,-7.62033 -1.608738,-10.77388 -2.76701,-13.7378 -5.54065,-20.54694 -13.10516,-32.17246 -3.31208,-5.09017 -7.66709,-10.05096 -12.92379,-14.72149 -1.01244,-0.89955 -1.76541,-1.71094 -1.67326,-1.80308 0.27582,-0.27583 3.10318,0.6507 5.40442,1.77103 6.23808,3.03692 12.42194,8.80686 17.55424,16.37923 2.652979,3.91429 5.231698,8.93184 6.180605,12.02594 1.440868,4.69822 1.882201,5.82083 2.28835,5.82083 0.617387,0 0.620549,-1.8422 0.01524,-8.87547 -0.758706,-8.81565 -0.726739,-12.8658 0.134056,-16.98334 0.913538,-4.36984 2.31075,-8.45913 4.67972,-13.6964 3.090673,-6.83279 3.569449,-8.66239 3.824696,-14.61578 l 0.155874,-3.63557 -1.163646,-0.51222 c -2.420461,-1.06544 -2.377567,-1.08088 -3.401714,1.22498 -0.76436,1.72096 -1.284443,2.42013 -3.156378,4.24328 -1.232673,1.20055 -2.352789,2.18281 -2.489145,2.18281 -0.136356,0 -0.168349,-0.26789 -0.0711,-0.59531 0.291561,-0.98162 0.511781,-7.34353 0.253648,-7.32755 -0.736174,0.0456 -3.122826,4.32944 -4.096731,7.35332 -0.579544,1.79942 -1.038145,2.43498 -1.031425,1.42944 0.002,-0.25466 -0.31657,-1.38576 -0.70726,-2.51354 -0.532,-1.53572 -0.82998,-2.05052 -1.18688,-2.05052 -0.26209,0 -1.66035,1.11883 -3.10722,2.4863 -2.02008,1.90922 -2.97586,2.61545 -4.1178,3.04271 -0.81792,0.30602 -1.53859,0.5564 -1.60151,0.5564 -0.0629,0 0.171,-0.42056 0.51982,-0.93457 0.5963,-0.87869 1.46651,-3.92988 1.46651,-5.14197 0,-0.67216 -0.5473,-0.57867 -3.36552,0.57489 -3.13245,1.28219 -5.59561,3.05211 -7.2883,5.23707 l -0.7174,0.92604 -0.003,-1.08306 c -0.004,-1.31696 0.65595,-3.29724 1.96108,-5.88837 0.53865,-1.06939 1.08954,-2.23415 1.22421,-2.58837 0.24468,-0.64355 0.24383,-0.64389 -1.14095,-0.46758 -2.61565,0.33304 -5.25293,1.15075 -7.53897,2.33752 -1.25883,0.65351 -2.31808,1.15891 -2.35388,1.12311 -0.0358,-0.0358 1.90607,-2.24128 4.31528,-4.90105 2.4092,-2.65977 4.31423,-4.90208 4.23339,-4.98292 -0.0808,-0.0808 -1.51654,-0.0263 -3.19047,0.12117 -2.28706,0.2015 -3.22749,0.39756 -3.78379,0.78881 -0.40716,0.28637 -1.09748,0.70018 -1.53404,0.91958 -2.27518,1.14343 -1.98635,0.65166 1.93994,-3.30302 l 4.05661,-4.08595 -2.6014,-0.16265 c -3.96668,-0.24801 -5.35434,-0.66159 -3.65274,-1.08867 0.36765,-0.0923 2.29332,-0.93182 4.27926,-1.86565 1.98594,-0.93383 4.837,-2.09163 6.33569,-2.57289 1.49869,-0.48126 2.72818,-0.98315 2.7322,-1.11532 0.004,-0.13217 -0.48371,-1.30626 -1.08385,-2.60908 -0.7869,-1.70825 -1.129,-2.84012 -1.22685,-4.05917 -0.14109,-1.757715 0.14489,-2.208575 0.66994,-1.056205 0.35644,0.782275 1.73667,1.831825 2.97099,2.259175 1.28335,0.44433 6.08541,0.71058 6.08541,0.3374 0,-0.15717 -0.19066,-1.15675 -0.4237,-2.22128 -0.46187,-2.109885 -0.55907,-6.573565 -0.16582,-7.614635 0.24529,-0.64937 0.24819,-0.64802 0.7141,0.3338 0.25729,0.54221 0.84053,1.30114 1.29609,1.68651 0.86802,0.73428 2.98168,1.78573 4.17416,2.07645 0.69019,0.16827 0.70436,0.14341 1.00912,-1.76933 0.35844,-2.24968 0.65766,-3.26415 1.212548,-4.11101 0.577694,-0.88167 0.796565,-0.75125 0.84664,0.50449 0.04736,1.18749 0.583692,2.09672 1.75084,2.96812 0.622742,0.46494 0.758638,0.48573 0.971789,0.14864 0.389032,-0.61525 0.2702,-3.13055 -0.240393,-5.08825 -0.256185,-0.98227 -0.450945,-1.78594 -0.432795,-1.78594 0.01815,0 0.60682,0.53437 1.308161,1.18749 1.397799,1.30169 3.815154,2.61397 4.553342,2.4718 1.024861,-0.19737 1.785559,-5.67798 1.031211,-7.4296 -0.332417,-0.77188 1.18446,-0.57531 2.552377,0.33076 1.012087,0.67038 3.455011,3.39684 4.460431,4.97813 0.187277,0.29454 0.327858,0.34183 0.414332,0.13937 0.651529,-1.52536 4.922351,-6.44045 5.59625,-6.44045 0.148791,0 0.04524,0.4419 -0.230113,0.98199 -0.608217,1.19298 -0.716069,5.23685 -0.159954,5.99738 0.312981,0.42803 0.490511,0.34304 2.182812,-1.04499 2.068899,-1.69692 8.597988,-6.38207 9.233951,-6.62611 0.59268,-0.22744 0.509582,0.34932 -0.14891,1.03353 -0.614032,0.63801 -1.950734,3.32732 -2.230155,4.48685 -0.143645,0.59609 -0.08646,0.72714 0.316365,0.72502 0.786972,-0.004 2.971194,-1.15139 5.235234,-2.74979 1.15373,-0.81453 2.22033,-1.48096 2.3702,-1.48096 0.14987,0 -0.22212,0.50602 -0.82665,1.12448 -1.29348,1.3233 -2.51345,3.85178 -3.06304,6.34837 l -0.3928,1.78432 0.70105,-0.16101 c 0.38557,-0.0886 1.59401,-0.37859 2.68542,-0.64454 1.66118,-0.40478 6.87917,-0.87745 6.87917,-0.62314 0,0.0429 -0.72806,0.46604 -1.61791,0.94033 -0.88986,0.47429 -2.20449,1.38972 -2.92142,2.0343 -1.26051,1.13331 -2.26138,2.59271 -1.97469,2.87939 0.29764,0.29764 2.59998,-0.25396 3.99316,-0.95669 0.80439,-0.40575 1.46253,-0.70384 1.46253,-0.66244 0,0.0414 -0.49074,0.64807 -1.09052,1.34814 -1.60174,1.86955 -3.5387,3.390395 -5.8548,4.597015 -1.12779,0.58754 -2.05052,1.16237 -2.05052,1.2774 0,0.11503 1.4338,1.14324 3.18621,2.28492 2.28078,1.48589 3.07903,2.13576 2.80901,2.28687 -0.99257,0.55547 -3.99921,1.00562 -6.740655,1.0092 -2.981434,0.004 -2.993613,0.006 -2.814545,0.59923 0.24992,0.82727 1.307843,1.9107 3.096958,3.17163 0.836742,0.58973 1.521352,1.1536 1.521352,1.25305 0,0.0995 -0.74172,0.0614 -1.648265,-0.0846 -1.169416,-0.18832 -2.492512,-0.17157 -4.554281,0.0577 -1.598308,0.17773 -2.929691,0.34738 -2.958629,0.37701 -0.02894,0.0296 -0.308221,2.13454 -0.62063,4.67758 -0.312407,2.54303 -0.617752,4.67343 -0.678543,4.73422 -0.179048,0.17905 -0.352411,-0.4845 -0.781835,-2.99249 -0.436846,-2.55133 -0.84871,-3.43549 -1.704597,-3.65931 -0.483495,-0.12644 -0.623446,0.10755 -1.232234,2.06014 -0.506526,1.62461 -0.662979,2.62515 -0.596074,3.81197 0.04989,0.88506 0.03118,1.60817 -0.04158,1.60691 -0.07276,-10e-4 -0.421383,-0.42674 -0.774718,-0.94551 -0.618493,-0.90808 -2.833352,-3.0224 -3.165137,-3.02146 -0.08865,2.5e-4 -0.168381,2.76845 -0.177173,6.15156 -0.02426,9.33504 -0.536461,12.22759 -3.220955,18.18965 -4.345073,9.65008 -5.340141,12.99778 -5.544447,18.65313 -0.116565,3.22658 -0.02754,4.42054 0.690528,9.26041 1.053478,7.10066 1.313762,9.4777 1.368906,12.50157 0.02455,1.34606 0.129593,2.44739 0.233432,2.44739 0.4421,0 1.087485,-1.14548 2.636025,-4.67864 1.6867,-3.84838 3.326019,-6.81216 5.827038,-10.5349 3.898419,-5.80276 8.972021,-12.04934 11.901112,-14.65256 1.034116,-0.91907 2.058903,-2.01659 2.277303,-2.43892 l 0.397092,-0.7679 h -0.8285 c -0.455673,0 -1.56006,0.18939 -2.45419,0.42087 -5.245286,1.35792 -8.077293,4.49209 -9.791087,10.83572 -0.35207,1.3032 -0.708091,2.19086 -0.79116,1.97258 -0.636683,-1.67307 -1.229902,-5.0329 -1.229902,-6.96582 0,-4.96448 2.16944,-8.52248 6.542797,-10.73054 1.734886,-0.87593 4.310536,-1.36722 9.113038,-1.73826 l 4.411036,-0.3408 2.07126,-1.11426 c 2.18551,-1.17572 4.40995,-2.72588 5.84156,-4.07085 0.47294,-0.44432 0.85989,-0.72023 0.85989,-0.61312 0,0.37238 -1.07388,2.29595 -2.52219,4.51786 -2.00908,3.0822 -2.68522,5.03236 -3.16334,9.12383 -0.63795,5.45908 -1.64445,7.97449 -4.03372,10.08086 -1.59323,1.40459 -2.58598,1.90708 -5.229706,2.64712 -1.650529,0.46202 -2.532176,0.56116 -4.003445,0.45019 l -1.886778,-0.14231 -0.931214,0.9694 c -2.428992,2.52862 -6.774842,10.80777 -8.523608,16.23809 -1.916576,5.9514 -3.043497,12.90371 -3.043497,18.77623 v 2.59988 h -5.291667 c -2.910417,0 -5.291667,-0.0928 -5.291667,-0.20633 z m -9.494328,-77.47013 c 1.06047,-0.73491 1.8164,-1.7265 3.19455,-4.19044 0.89545,-1.60094 1.53728,-2.15174 1.53728,-1.31923 0,0.25646 0.25967,1.27255 0.57705,2.25797 l 0.577045,1.79168 0.627396,-0.67697 c 0.345069,-0.37234 0.979702,-1.40827 1.410298,-2.30207 0.430593,-0.89381 0.992391,-1.87248 1.248434,-2.17482 0.795874,-0.93977 2.783006,-2.25476 3.031606,-2.00616 0.128344,0.12834 0.196326,1.67887 0.151075,3.44563 -0.04525,1.76676 -0.0031,3.21206 0.09373,3.21179 0.414528,-0.001 2.616655,-3.31003 2.87487,-4.31969 0.434297,-1.69818 0.472117,-1.7665 0.975712,-1.76236 0.259228,0.002 1.273929,0.39577 2.25489,0.87476 l 1.78357,0.8709 0.11412,-0.80862 c 0.06276,-0.44474 0.243837,-1.75062 0.402383,-2.90196 0.158547,-1.15134 0.413237,-2.24392 0.565979,-2.42796 0.350781,-0.42267 1.462135,-0.0672 3.15559,1.00946 l 1.190625,0.75694 0.08844,-0.72202 c 0.04864,-0.39712 -0.179906,-1.29497 -0.507889,-1.99522 -0.327983,-0.70026 -0.50672,-1.36284 -0.397193,-1.4724 0.109527,-0.10957 1.384988,-0.19921 2.834357,-0.19921 2.555209,0 2.640026,-0.0191 2.793559,-0.6301 0.08709,-0.34655 0.02043,-1.22758 -0.148143,-1.95784 -0.168564,-0.73026 -0.274696,-1.35625 -0.23585,-1.39108 0.03885,-0.0348 1.142193,0.2186 2.451881,0.56321 2.423477,0.63767 4.101042,0.81053 4.101042,0.4226 0,-0.11829 -0.367811,-0.56478 -0.817354,-0.99219 -1.004559,-0.95509 -1.981226,-2.60615 -2.220436,-3.75366 -0.2119,-1.01649 -0.100814,-1.037 2.508623,-0.46302 1.807316,0.39753 4.211796,0.50172 5.237613,0.22694 0.55687,-0.14916 0.49293,-0.23979 -0.768351,-1.08919 -0.756668,-0.50957 -2.280158,-1.37716 -3.385531,-1.92799 l -2.009773,-1.0015 0.926042,-0.38475 c 0.509323,-0.21161 1.966635,-0.72769 3.238471,-1.14684 1.271832,-0.41915 2.313902,-0.82162 2.315702,-0.89438 0.002,-0.0728 -0.80067,-0.0995 -1.783265,-0.0594 -1.778633,0.0725 -3.140872,-0.32588 -2.963082,-0.866605 0.04785,-0.14552 0.570269,-0.42744 1.160939,-0.6265 0.590669,-0.19906 1.669256,-0.75793 2.39686,-1.24195 1.444568,-0.96094 4.246208,-3.72822 3.516898,-3.47376 -1.60243,0.55911 -6.52025,2.03492 -6.780899,2.03492 -0.190269,0 0.0027,-0.63028 0.486114,-1.58797 0.898208,-1.77934 1.687436,-3.73306 1.952644,-4.83373 0.166293,-0.69016 -0.0024,-0.61397 -2.874452,1.29891 -1.678107,1.11763 -3.12596,1.95721 -3.217448,1.86572 -0.255849,-0.25585 0.406469,-3.31127 1.085279,-5.00663 0.334029,-0.83426 0.47316,-1.4359 0.309179,-1.33699 -0.651283,0.39287 -7.20793,5.21702 -7.660786,5.63653 -0.45856,0.42481 -0.380566,0.45721 1.513814,0.62887 4.368945,0.39591 6.490179,2.23768 6.504472,5.64756 0.0076,1.811885 -0.677032,3.552645 -2.39162,6.081045 -2.349309,3.46438 -3.134682,4.28727 -4.994383,5.23294 -1.098243,0.55846 -2.368312,1.52911 -3.456104,2.64131 -2.834193,2.8978 -10.230745,7.11082 -15.509511,8.8341 -3.734292,1.21908 -6.571912,1.73149 -9.652582,1.74303 -2.69701,0.0101 -2.87373,-0.0251 -4.59847,-0.91553 -1.24936,-0.64502 -2.04418,-1.27547 -2.61916,-2.07753 -0.72828,-1.0159 -0.82481,-1.35861 -0.81973,-2.91042 0.007,-2.19308 0.82441,-3.93201 3.55566,-7.56584 2.16564,-2.88131 5.16653,-5.74885 8.60942,-8.22685 5.11148,-3.678965 14.442266,-7.598635 20.11612,-8.450365 1.418305,-0.21291 2.630623,-0.439 2.694044,-0.50242 0.176794,-0.17679 -0.69822,-1.75199 -0.97322,-1.75199 -0.133197,0 -0.317291,0.12155 -0.409101,0.2701 -0.253027,0.4094 -2.846851,1.84126 -3.340587,1.84409 -0.283917,0.002 -0.49149,-0.30624 -0.601361,-0.8919 -0.182756,-0.97416 -1.852377,-3.70042 -2.755567,-4.49945 -0.448143,-0.39646 -0.589309,-0.42365 -0.686784,-0.13229 -0.750695,2.2439 -1.530845,5.05984 -1.657184,5.98157 -0.138729,1.01214 -0.221374,1.12508 -0.715356,0.9776 -1.077439,-0.32167 -2.924667,-1.19252 -3.354301,-1.58133 -0.396785,-0.35909 -0.447643,-0.24524 -0.594889,1.33156 -0.222599,2.38378 -0.472659,2.78691 -1.565254,2.52341 -0.475694,-0.11473 -1.307557,-0.40035 -1.848585,-0.63473 -0.541031,-0.23437 -1.09202,-0.42613 -1.224426,-0.42613 -0.132405,0 -0.388911,0.9525 -0.57001,2.11667 -0.215368,1.38445 -0.447589,2.11667 -0.671309,2.11667 -0.18812,0 -1.22286,-0.46668 -2.29942,-1.03706 -1.07656,-0.57039 -2.39637,-1.11942 -2.93291,-1.22007 l -0.97553,-0.18301 0.003,1.15392 c 0.002,0.63466 0.24016,1.909175 0.52952,2.832265 0.28936,0.92309 0.46035,1.78473 0.37999,1.91475 -0.21192,0.3429 -2.64058,0.97464 -4.50917,1.17292 -0.88654,0.0941 -2.30568,0.0428 -3.15366,-0.11397 -0.84797,-0.15676 -1.57937,-0.24742 -1.62532,-0.20147 -0.27964,0.27964 1.27909,2.55344 2.2075,3.22017 0.60957,0.43776 1.11559,0.86178 1.12448,0.94228 0.009,0.0805 -0.84704,0.41511 -1.90206,0.74357 -1.98151,0.61692 -7.97844,3.45681 -7.76029,3.67496 0.15203,0.15203 6.03621,-0.40879 6.69072,-0.6377 1.03034,-0.36034 -0.38204,0.65376 -4.28825,3.07898 -2.18281,1.35523 -4.14309,2.6252 -4.35617,2.82217 -0.32724,0.30248 0.19689,0.35812 3.37343,0.35812 4.1886,0 4.27582,0.047 2.94917,1.5875 -0.4386,0.50932 -1.44828,1.78925 -2.24373,2.84427 -0.79545,1.05503 -1.58433,1.91823 -1.75306,1.91823 -0.16873,0 -0.2423,0.0645 -0.16349,0.1433 0.0788,0.0788 1.90799,-0.15576 4.06484,-0.52127 2.15684,-0.36552 3.95115,-0.63496 3.98734,-0.59877 0.0362,0.0362 -0.63913,1.30555 -1.50072,2.82081 -0.86159,1.51525 -1.52437,2.79716 -1.47285,2.84867 0.0515,0.0515 2.07266,-0.85561 4.49143,-2.01583 l 4.39777,-2.10949 v 2.759 c 0,1.51745 0.0829,2.759 0.18422,2.759 0.10132,0 0.62753,-0.30722 1.16937,-0.68271 z m 4.99641,-9.15185 c 5.561488,-1.34213 10.888471,-3.75185 16.261603,-7.35611 1.46086,-0.97994 3.142012,-2.02945 3.735893,-2.33226 0.593884,-0.30281 1.42375,-1.00152 1.844143,-1.55268 0.420397,-0.55117 1.584741,-1.89846 2.58743,-2.99399 4.373113,-4.778 5.433512,-7.961675 3.440665,-10.330045 -1.220192,-1.45012 -2.38171,-1.84213 -5.975731,-2.01684 -2.943871,-0.1431 -3.507594,-0.0917 -6.151293,0.56057 -3.790839,0.93534 -6.906797,2.14739 -10.971879,4.26787 -5.766381,3.007915 -10.042411,6.510875 -13.468181,11.033265 -2.70008,3.56438 -3.07661,4.40167 -3.07661,6.8414 0,1.78171 0.078,2.11236 0.63924,2.70965 0.90552,0.96369 2.59797,1.71746 4.41477,1.96621 1.96021,0.26839 2.63836,0.18795 6.71995,-0.79704 z m -3.43958,76.88946 c -16.84428,-3.88935 -30.77323,-12.32155 -39.89701,-24.15255 -6.67214,-8.65191 -11.0528501,-19.61465 -12.2274501,-30.59923 -0.15561,-1.4552 -0.39767,-3.59833 -0.53791,-4.7625 -0.42868,-3.5586 -0.39806,-4.10593 0.71049,-12.7 1.7628901,-13.66684 8.8916601,-27.474915 19.3297101,-37.440725 9.86173,-9.41555 22.2682,-15.411174 35.92946,-17.363474 3.869417,-0.55297 12.609201,-0.63032 16.271875,-0.14401 9.330815,1.2389 18.031083,4.249845 25.518538,8.831304 17.19207,10.51959 28.1004,27.329255 30.87104,47.572115 0.43428,3.17294 0.44122,12.59686 0.0116,15.74271 -0.89802,6.57553 -2.35282,11.68597 -5.08012,17.84547 -1.88609,4.25964 -4.76545,9.58669 -5.27327,9.75596 -0.20396,0.068 0.0592,-0.63121 0.6045,-1.60637 5.07382,-9.07284 7.89437,-16.83588 9.07444,-24.97572 0.56384,-3.88924 0.63809,-13.10206 0.13509,-16.76205 -1.01688,-7.39928 -2.9442,-13.79265 -6.10163,-20.24062 -9.50769,-19.416145 -27.39049,-32.412379 -48.834146,-35.489959 -3.892116,-0.5586 -12.621586,-0.62791 -16.271876,-0.1292 -14.990121,2.04797 -28.060441,8.606124 -38.364581,19.249754 -7.87798,8.13753 -13.2528,17.715145 -15.99511,28.502325 -1.4653201,5.76403 -1.8499501,9.0425 -1.8513601,15.78062 -10e-4,6.03967 0.2347,8.69115 1.2126701,13.62604 3.69935,18.66709 15.38603,33.74514 33.00325,42.58051 6.1603,3.08951 11.43923,4.88113 20.34149,6.9037 0.32742,0.0744 0.59531,0.25205 0.59531,0.39479 0,0.32663 0.12534,0.34317 -3.175,-0.41889 z M 195.09937,179.44799 c -1.78429,-1.29992 -2.45389,-3.81992 -1.53149,-5.76372 1.75216,-3.69242 6.74173,-3.49463 8.20048,0.32507 0.7495,1.96254 0.0623,4.18679 -1.7028,5.51158 -0.45756,0.34342 -1.23555,0.55395 -2.28732,0.61897 -1.43185,0.0885 -1.70423,0.0181 -2.67887,-0.6919 z m 4.68385,-0.11891 c 1.02869,-0.68361 2.08965,-2.58285 2.08965,-3.7407 0,-1.1758 -0.98338,-2.9807 -1.94922,-3.57762 -1.39826,-0.86417 -2.75831,-0.94151 -4.13511,-0.23514 -3.96493,2.0342 -2.57588,8.15091 1.851,8.15091 0.85026,0 1.52953,-0.18931 2.14368,-0.59745 z m -0.34276,-1.16955 c -0.29739,-0.0784 -0.47531,-0.44616 -0.52917,-1.09378 -0.0785,-0.94383 -0.11784,-0.97833 -1.20561,-1.05704 l -1.12448,-0.0814 v 1.07355 c 0,0.89716 -0.0869,1.07355 -0.52917,1.07355 -0.49388,0 -0.52916,-0.17639 -0.52916,-2.64584 v -2.64583 h 1.60489 c 2.09094,0 2.62844,0.29629 2.62844,1.4489 0,0.49562 -0.12484,0.97828 -0.27743,1.07258 -0.17118,0.1058 -0.18487,0.28911 -0.0357,0.47864 0.18926,0.24054 0.65346,2.65058 0.48642,2.52544 -0.0225,-0.0169 -0.24258,-0.0838 -0.489,-0.14881 z m -0.6103,-3.78925 c 0,-0.58903 -0.12312,-0.67037 -1.12448,-0.74282 -1.09967,-0.0796 -1.12448,-0.0632 -1.12448,0.74282 0,0.80599 0.0248,0.82238 1.12448,0.74282 1.00136,-0.0725 1.12448,-0.15378 1.12448,-0.74282 z"
       id="path877"
       inkscape:connector-curvature="0" />
  </g>
</svg>
